<svg width="368" height="328" viewBox="0 0 368 328" fill="none" xmlns="http://www.w3.org/2000/svg">
<path d="M176.631 284.327C257.188 284.327 322.493 221.928 322.493 144.955C322.493 67.9827 257.188 5.58398 176.631 5.58398C96.0741 5.58398 30.7695 67.9827 30.7695 144.955C30.7695 221.928 96.0741 284.327 176.631 284.327Z" fill="#F2F6F9"/>
<path d="M359.12 327.13H8.87976C3.976 327.13 0 323.332 0 318.645C0 313.96 3.97519 310.161 8.87976 310.161H359.12C364.024 310.161 368 313.959 368 318.645C368 323.332 364.025 327.13 359.12 327.13Z" fill="#E1E8EF"/>
<path d="M307.141 286.622C305.128 245.914 328.794 229.311 328.794 229.311C328.794 229.311 334.35 274.443 307.141 286.622Z" fill="#76A87E"/>
<path d="M328.795 229.311C320.77 256.85 307.076 284.963 307.076 284.963" stroke="#B8D8BD" stroke-width="0.963118" stroke-miterlimit="10"/>
<path d="M299.988 298.345C333.279 272.868 361.244 281.409 361.244 281.409C361.244 281.409 326.291 312.224 299.988 298.345Z" fill="#76A87E"/>
<path d="M361.243 281.409C333.207 291.386 301.354 297.319 301.354 297.319" stroke="#B8D8BD" stroke-width="0.963118" stroke-miterlimit="10"/>
<path d="M299.283 302.465C317.764 254.012 353.878 245.69 353.878 245.69C353.878 245.69 337.272 300.96 299.283 302.465Z" fill="#5B8960"/>
<path d="M353.877 245.69C330.42 274.083 300.053 300.498 300.053 300.498" stroke="#B8D8BD" stroke-width="0.963118" stroke-miterlimit="10"/>
<path d="M35.8263 156.846C25.1443 156.846 16.4844 165.121 16.4844 175.328C16.4844 185.534 25.1443 193.809 35.8263 193.809C46.5082 193.809 55.1681 185.534 55.1681 175.328C55.1681 165.121 46.5082 156.846 35.8263 156.846ZM35.8263 185.569C29.9016 185.569 25.0998 180.988 25.0998 175.328C25.0998 169.674 29.9016 165.086 35.8263 165.086C41.7431 165.086 46.5449 169.674 46.5449 175.328C46.5456 180.988 41.7439 185.569 35.8263 185.569Z" fill="#093542"/>
<path d="M37.9161 158.157H33.7301C32.5861 158.157 31.6582 157.271 31.6582 156.177V152.412C31.6582 151.319 32.5861 150.432 33.7301 150.432H37.9161C39.0602 150.432 39.988 151.319 39.988 152.412V156.177C39.988 157.271 39.0602 158.157 37.9161 158.157Z" fill="#093542"/>
<path d="M24.5977 161.772L21.6377 164.601C20.8285 165.374 19.5166 165.374 18.7082 164.601L15.9214 161.939C15.1121 161.165 15.1121 159.912 15.9214 159.139L18.8814 156.311C19.6907 155.538 21.0025 155.538 21.811 156.311L24.5977 158.973C25.4062 159.746 25.4062 161 24.5977 161.772Z" fill="#093542"/>
<path d="M17.8543 173.328V177.328C17.8543 178.421 16.9265 179.308 15.7824 179.308H11.8415C10.6974 179.308 9.76953 178.421 9.76953 177.328V173.328C9.76953 172.235 10.6974 171.349 11.8415 171.349H15.7824C16.9265 171.349 17.8543 172.235 17.8543 173.328Z" fill="#093542"/>
<path d="M21.6377 186.055L24.5977 188.884C25.407 189.657 25.407 190.91 24.5977 191.683L21.811 194.345C21.0017 195.118 19.6899 195.118 18.8814 194.345L15.9214 191.517C15.1121 190.743 15.1121 189.49 15.9214 188.717L18.7074 186.055C19.5166 185.282 20.8285 185.282 21.6377 186.055Z" fill="#093542"/>
<path d="M33.7301 192.499H37.9161C39.0602 192.499 39.988 193.385 39.988 194.478V198.244C39.988 199.337 39.0602 200.224 37.9161 200.224H33.7301C32.5861 200.224 31.6582 199.337 31.6582 198.244V194.478C31.659 193.385 32.5861 192.499 33.7301 192.499Z" fill="#093542"/>
<path d="M47.0523 188.884L50.0123 186.055C50.8215 185.282 52.1334 185.282 52.9418 186.055L55.7278 188.717C56.5371 189.491 56.5371 190.744 55.7278 191.517L52.7678 194.345C51.9585 195.118 50.6467 195.118 49.8382 194.345L47.0523 191.683C46.243 190.91 46.243 189.656 47.0523 188.884Z" fill="#093542"/>
<path d="M53.7949 177.327V173.328C53.7949 172.235 54.7228 171.348 55.8668 171.348H59.8078C60.9518 171.348 61.8797 172.235 61.8797 173.328V177.327C61.8797 178.421 60.9518 179.307 59.8078 179.307H55.8668C54.722 179.307 53.7949 178.421 53.7949 177.327Z" fill="#093542"/>
<path d="M50.0103 164.601L47.0503 161.772C46.241 160.999 46.241 159.746 47.0503 158.973L49.8363 156.311C50.6455 155.538 51.9574 155.538 52.7659 156.311L55.7259 159.139C56.5351 159.913 56.5351 161.166 55.7259 161.939L52.9399 164.601C52.1314 165.374 50.8196 165.374 50.0103 164.601Z" fill="#093542"/>
<path d="M61.817 220.967C40.4539 220.967 23.1348 237.516 23.1348 257.928C23.1348 278.341 40.4539 294.889 61.817 294.889C83.18 294.889 100.499 278.341 100.499 257.928C100.5 237.516 83.18 220.967 61.817 220.967ZM61.817 278.412C49.9684 278.412 40.3649 269.25 40.3649 257.928C40.3649 246.621 49.9684 237.445 61.817 237.445C73.6507 237.445 83.2542 246.621 83.2542 257.928C83.2542 269.25 73.6507 278.412 61.817 278.412Z" fill="#D4EDF4"/>
<path d="M68.0696 223.589H55.5546C54.4105 223.589 53.4827 222.703 53.4827 221.609V210.12C53.4827 209.027 54.4105 208.141 55.5546 208.141H68.0696C69.2137 208.141 70.1416 209.027 70.1416 210.12V221.609C70.1416 222.703 69.2137 223.589 68.0696 223.589Z" fill="#D4EDF4"/>
<path d="M40.8232 229.419L31.9744 237.875C31.1651 238.648 29.8533 238.648 29.0448 237.875L20.5425 229.751C19.7332 228.978 19.7332 227.725 20.5425 226.952L29.3921 218.497C30.2013 217.724 31.5132 217.724 32.3216 218.497L40.824 226.621C41.6324 227.393 41.6324 228.646 40.8232 229.419Z" fill="#D4EDF4"/>
<path d="M25.8731 251.951V263.908C25.8731 265.002 24.9452 265.888 23.8012 265.888H11.777C10.633 265.888 9.70508 265.002 9.70508 263.908V251.951C9.70508 250.858 10.633 249.971 11.777 249.971H23.8012C24.9452 249.971 25.8731 250.858 25.8731 251.951Z" fill="#D4EDF4"/>
<path d="M31.9744 277.984L40.824 286.44C41.6332 287.213 41.6332 288.467 40.824 289.239L32.3216 297.363C31.5124 298.136 30.2006 298.136 29.3921 297.363L20.5425 288.907C19.7332 288.134 19.7332 286.881 20.5425 286.108L29.0448 277.984C29.8533 277.212 31.1651 277.212 31.9744 277.984Z" fill="#D4EDF4"/>
<path d="M55.5543 292.271H68.0686C69.2127 292.271 70.1405 293.157 70.1405 294.25V305.739C70.1405 306.833 69.2127 307.719 68.0686 307.719H55.5543C54.4103 307.719 53.4824 306.833 53.4824 305.739V294.25C53.4832 293.156 54.4103 292.271 55.5543 292.271Z" fill="#D4EDF4"/>
<path d="M82.8003 286.44L91.6499 277.985C92.4591 277.212 93.771 277.212 94.5795 277.985L103.082 286.109C103.891 286.882 103.891 288.136 103.082 288.908L94.2322 297.364C93.4229 298.137 92.1111 298.137 91.3026 297.364L82.8003 289.24C81.991 288.467 81.991 287.213 82.8003 286.44Z" fill="#D4EDF4"/>
<path d="M97.752 263.908V251.951C97.752 250.858 98.6798 249.971 99.8239 249.971H111.848C112.992 249.971 113.92 250.858 113.92 251.951V263.908C113.92 265.002 112.992 265.888 111.848 265.888H99.8231C98.6791 265.888 97.752 265.002 97.752 263.908Z" fill="#D4EDF4"/>
<path d="M91.6499 237.875L82.8003 229.419C81.991 228.646 81.991 227.393 82.8003 226.62L91.3026 218.496C92.1119 217.723 93.4237 217.723 94.2322 218.496L103.081 226.951C103.89 227.724 103.89 228.978 103.081 229.75L94.5795 237.875C93.7702 238.648 92.4584 238.648 91.6499 237.875Z" fill="#D4EDF4"/>
<path d="M77.092 16.6253C59.5454 16.7965 44.9932 21.5957 44.9932 21.5957C44.9932 21.5957 47.9575 38.1413 27.4961 43.9266C28.5048 107.489 55.8215 127.007 80.6376 127.007C105.453 127.007 132.771 107.49 133.779 43.9266C113.318 38.1413 116.282 21.5957 116.282 21.5957C116.282 21.5957 99.7247 16.1358 80.6376 16.6556C79.4452 16.6235 78.262 16.6137 77.092 16.6253Z" fill="#6C8CBA"/>
<path d="M80.4216 23.1293C79.3308 23.0999 78.2457 23.0918 77.1726 23.1016C64.9596 23.2211 56.4154 25.3359 52.0896 26.5377C51.9179 28.3493 51.5979 30.3812 50.7488 32.6547C48.7072 38.1164 43.7171 44.2333 34.9023 48.1161C35.9558 76.5194 42.6058 94.8302 51.0287 105.571C59.9069 116.893 70.2968 120.53 80.6399 120.53C90.984 120.53 101.373 116.893 110.251 105.571C118.675 94.8293 125.324 76.5194 126.378 48.1161C117.562 44.2333 112.572 38.1164 110.531 32.6547C109.668 30.3455 109.347 28.2807 109.178 26.4477C103.399 24.9935 92.7317 22.8047 80.8583 23.1284L80.4216 23.1293Z" fill="#D4EDF4" stroke="#0B2140" stroke-width="1.15156" stroke-miterlimit="2.5989" stroke-linecap="round" stroke-linejoin="round"/>
<path d="M75.1384 42.1907C70.7566 42.1907 67.173 45.614 67.173 49.8009V59.6563C65.9892 59.9643 64.8077 60.3058 63.6309 60.704V87.3994C74.8224 89.5059 86.0436 91.1829 97.6471 87.3994V60.7032C96.4633 60.3505 95.2818 60.0411 94.1034 59.7555V49.8009C94.1034 45.614 90.5206 42.1907 86.1395 42.1907H75.1384ZM75.1384 45.6088H86.138C88.5993 45.6088 90.5245 47.4483 90.5245 49.8002V58.9912C83.8382 57.7616 77.2431 57.6676 70.7503 58.8629V49.8002C70.7503 47.4483 72.6771 45.6088 75.1384 45.6088ZM80.6378 66.7296C82.5974 66.7304 84.1855 68.2486 84.1855 70.1209C84.1831 71.4266 83.3957 72.6152 82.1619 73.1766V78.0913H79.1145V73.1766C77.8792 72.6159 77.091 71.4273 77.0886 70.1209C77.0886 68.2486 78.6775 66.7304 80.6378 66.7296Z" fill="#093542"/>
<path d="M357.314 127.927C357.314 169.106 322.377 202.488 279.281 202.488C236.185 202.488 201.248 169.106 201.248 127.927C201.248 86.7478 236.185 53.3663 279.281 53.3663C322.377 53.3663 357.314 86.7478 357.314 127.927Z" fill="#D4EDF4" stroke="white" stroke-width="0.866315" stroke-miterlimit="2.5989" stroke-linecap="round" stroke-linejoin="round"/>
<path d="M321.586 127.927C321.586 169.175 302.645 202.614 279.28 202.614C255.915 202.614 236.975 169.175 236.975 127.927C236.975 86.6787 255.915 53.2402 279.28 53.2402C302.646 53.2402 321.586 86.6787 321.586 127.927Z" fill="#D4EDF4" stroke="white" stroke-width="0.866315" stroke-miterlimit="2.5989" stroke-linecap="round" stroke-linejoin="round"/>
<path d="M279.281 53.3663V202.614" stroke="white" stroke-width="0.866315" stroke-miterlimit="2.5989" stroke-linecap="round" stroke-linejoin="round"/>
<path d="M201.182 127.99H357.379" stroke="white" stroke-width="0.866315" stroke-miterlimit="2.5989" stroke-linecap="round" stroke-linejoin="round"/>
<path d="M279.28 53.3663C256.469 53.3878 234.81 62.9455 220.002 79.5242C234.782 88.5299 256.439 93.7421 279.28 93.7897C302.136 93.7836 323.84 88.6044 338.681 79.6154C323.863 62.9716 302.149 53.3764 279.28 53.3663ZM279.28 162.065C256.439 162.113 234.782 167.325 220.002 176.331C234.81 192.909 256.469 202.467 279.28 202.488C302.15 202.478 323.863 192.883 338.681 176.239C323.84 167.25 302.135 162.071 279.28 162.065Z" stroke="white" stroke-width="0.866315" stroke-miterlimit="2.5989" stroke-linecap="round" stroke-linejoin="round"/>
<path d="M209.961 48.6094C215.419 49.8791 223.534 39.8311 217.608 36.3933C221.803 29.4551 213.536 18.1484 205.468 22.2051C205.143 20.7751 204.887 19.3257 204.319 17.9576C203.244 15.373 200.535 12.5068 197.832 11.4127C194.201 9.94288 181.702 11.3283 182.666 16.7024C179.112 14.5871 173.966 12.698 169.858 15.0327C165.868 17.3007 164.284 23.7548 166.597 27.3717C158.922 28.7878 152.378 40.7782 160.627 45.4266C158.5 48.4858 161.048 52.3978 162.926 55.0982C171.977 68.1167 190.757 62.726 202.032 55.3447C203.089 54.6522 204.562 53.7367 205.375 52.7893C206.361 51.6387 208.263 47.5889 209.961 48.6094Z" fill="#0B2140"/>
<path d="M212.088 45.5276C212.088 45.5276 205.403 64.8578 196.077 74.497C190.722 80.0312 184.567 80.1446 179.778 78.2517C174.989 76.359 175.053 74.2841 170.593 82.2403C163.773 80.0664 158.423 73.6215 158.423 73.6215C158.423 73.6215 164.133 70.6206 164.62 67.8867C165.106 65.1529 162.425 59.9656 164.508 54.2423C157.905 53.7035 157.37 46.149 161.268 39.0712C165.165 31.9936 174.527 34.144 172.698 42.4303C172.02 45.9572 170.282 49.1664 170.282 49.1664C170.282 49.1664 172.332 54.6279 173.571 52.3412C174.514 50.6005 174.51 41.172 175.567 40.1442C177.21 38.5458 177.798 40.5136 180.516 41.5655C185.541 43.511 190.021 32.6342 190.021 32.6342C190.021 32.6342 201.117 42.4374 212.088 45.5276Z" fill="#FCA697"/>
<path d="M165.476 38.6641C165.476 38.6641 168.35 37.6275 169.179 40.526C170.009 43.4245 167.114 49.4286 164.361 49.782" stroke="#DD6858" stroke-width="1.00449" stroke-miterlimit="2.1977" stroke-linecap="round" stroke-linejoin="round"/>
<path d="M198.87 54.8563C198.87 54.8563 199.112 63.8711 196.532 65.2475C193.953 66.6247 191.831 63.6105 191.831 63.6105" stroke="#DD6858" stroke-width="1.00449" stroke-miterlimit="2.1977" stroke-linecap="round" stroke-linejoin="round"/>
<path d="M199.073 43.6574C198.76 42.4184 197.777 41.2407 194.846 40.8858C191.914 40.5313 190.401 41.9098 191.454 42.9777C192.507 44.0464 198.357 46.2568 199.073 43.6574Z" fill="#0B2140"/>
<path d="M204.676 46.4002C205.738 46.041 206.951 46.19 208.096 48.1186C209.241 50.0472 208.609 51.7776 207.461 51.527C206.313 51.2759 202.852 48.1342 204.676 46.4002Z" fill="#0B2140"/>
<path d="M193.574 49.0443C192.875 48.6364 191.838 49.0433 191.255 49.9528C190.673 50.8624 190.767 51.931 191.466 52.3385C192.164 52.7465 193.202 52.3396 193.784 51.4301C194.366 50.5205 194.272 49.4523 193.574 49.0443Z" fill="#0B2140"/>
<path d="M203.482 54.5326C202.784 54.1246 201.746 54.5315 201.164 55.441C200.581 56.351 200.676 57.4188 201.374 57.8268C202.072 58.2347 203.11 57.8278 203.692 56.9182C204.274 56.0087 204.18 54.9405 203.482 54.5326Z" fill="#0B2140"/>
<path d="M190.049 68.8633C190.049 68.8633 186.103 65.6525 185.082 63.5473C184.061 61.4421 182.757 62.4912 182.693 64.5657C182.629 66.6402 185.144 69.6189 186.434 70.0705C187.724 70.5224 190.822 70.3706 190.049 68.8633Z" fill="white"/>
<path d="M168.681 43.6756C168.681 43.6756 166.573 41.9105 164.17 43.9206" stroke="#DD6858" stroke-width="1.00449" stroke-miterlimit="2.1977" stroke-linecap="round" stroke-linejoin="round"/>
<path d="M165.974 65.3529C165.974 65.3529 167.518 70.0951 172.497 74.1783C173.721 75.1817 175.115 76.045 176.522 76.7778C175.238 76.2682 174.397 76.4197 173.032 78.2765C171.692 77.1246 170.14 75.7084 168.854 74.29C165.973 71.1134 165.974 65.3529 165.974 65.3529Z" fill="#FFA88D"/>
<path d="M172.777 49.6181C176.406 51.4078 179.145 46.7682 177.539 43.9698C183.095 46.3024 189.597 40.4901 190.348 35.9003C191.824 38.8035 193.91 39.9659 197.069 38.9598C199.777 43.09 203.441 45.3908 208.423 44.9441C209.53 48.8418 214.147 47.8037 214.698 44.0361C214.878 42.799 213.985 40.7145 213.525 39.6091C211.415 34.5367 205.174 30.2721 200.012 28.4466C194.392 26.4595 185.744 25.2817 180.881 29.5896C179.84 30.512 179.556 31.9307 178.712 32.9857C176.809 35.3636 175.11 37.2614 174.313 40.248C173.827 42.071 174.124 44.0086 173.809 45.8631C173.587 47.1789 172.872 48.268 172.777 49.6181Z" fill="#0B2140"/>
<path d="M163.823 73.0604L157.758 68.1214L153.783 71.2953C153.783 71.2953 135.794 65.2688 129.431 66.2672C123.068 67.2656 104.761 83.6691 97.9688 101.303C91.1762 118.936 76.6271 159.692 76.739 164.345C76.8509 168.998 80.2845 171.673 80.2845 171.673L77.2803 179.018C77.2803 179.018 133.356 201.538 157.894 195.778C156.066 191.25 156.644 190.234 156.644 190.234C156.644 190.234 165.489 187.221 168.176 183.69C170.864 180.16 190.501 107.435 191.62 101.908C192.74 96.3805 191.429 91.6706 185.267 88.4254C181.104 86.2336 175.889 83.1865 175.889 83.1865L177.494 81.0649L163.823 73.0604Z" fill="#C5673C"/>
<path d="M70.9083 145.112H284.487C292.3 145.112 298.637 150.826 298.64 157.874L298.701 291.527C298.704 298.575 292.372 304.289 284.558 304.289H70.9802C63.1663 304.289 56.8295 298.575 56.8263 291.527L56.7656 157.874C56.7624 150.826 63.0944 145.112 70.9083 145.112Z" fill="#6F90C1"/>
<path d="M78.6083 145.112H292.187C300 145.112 306.337 150.826 306.34 157.874L306.401 291.527C306.404 298.575 300.072 304.289 292.258 304.289H78.6794C70.8655 304.289 64.5287 298.575 64.5256 291.527L64.4648 157.874C64.4632 150.826 70.7952 145.112 78.6083 145.112Z" fill="#87A1CF"/>
<path d="M78.4131 151.7C74.3851 151.7 71.3597 154.592 71.3613 158.441L71.4213 290.961C71.4229 294.81 74.4514 297.702 78.4794 297.702H292.455C296.483 297.702 299.509 294.81 299.507 290.961L299.447 158.441C299.446 154.592 296.417 151.7 292.389 151.7H78.4131Z" fill="#D4EDF4"/>
<path d="M63.8809 177.679V290.487C63.8809 298.11 70.3478 304.29 78.3263 304.29H142.223" stroke="#556884" stroke-width="0.985946" stroke-miterlimit="10" stroke-linecap="round"/>
<path d="M71.6074 262.049V291.263C71.6074 294.698 74.5218 297.483 78.1167 297.483H255.461" stroke="#556884" stroke-width="0.985946" stroke-miterlimit="10" stroke-linecap="round"/>
<path d="M178.606 208.857C173.166 208.857 168.715 213.108 168.715 218.306V230.543C167.244 230.925 165.778 231.35 164.316 231.844V264.991C178.213 267.606 192.145 269.688 206.553 264.991V231.843C205.082 231.405 203.616 231.02 202.152 230.666V218.305C202.152 213.107 197.703 208.856 192.264 208.856L178.606 208.857ZM178.606 213.101H192.264C195.319 213.101 197.71 215.385 197.71 218.305V229.717C189.409 228.19 181.219 228.074 173.158 229.558V218.305C173.158 215.385 175.549 213.101 178.606 213.101ZM185.435 239.326C187.868 239.327 189.84 241.211 189.84 243.536C189.837 245.158 188.86 246.634 187.327 247.33V253.432H183.544V247.33C182.01 246.634 181.031 245.159 181.028 243.536C181.028 241.211 183.001 239.326 185.434 239.326C185.434 239.326 185.434 239.326 185.435 239.326Z" fill="#01818E"/>
<path d="M145.388 194.574H60.7168V216.956H145.388V194.574Z" fill="#ECF2FA"/>
<path d="M145.388 222.987H60.7168V245.368H145.388V222.987Z" fill="#ECF2FA"/>
<path d="M315.04 119.99H236.986V222.399H315.04V119.99Z" fill="#ECF2FA"/>
<path d="M304.368 128.797H247.662V132.792H304.368V128.797Z" fill="#395861"/>
<path d="M307.96 147.158H244.068V149.235H307.96V147.158Z" fill="#395861"/>
<path d="M307.96 152.548H244.068V154.625H307.96V152.548Z" fill="#395861"/>
<path d="M307.96 157.94H244.068V160.017H307.96V157.94Z" fill="#395861"/>
<path d="M307.96 163.33H244.068V165.407H307.96V163.33Z" fill="#395861"/>
<path d="M307.96 168.722H244.068V170.799H307.96V168.722Z" fill="#395861"/>
<path d="M72.1542 318.652H319.691C323.902 318.652 327.314 315.437 327.314 311.47C327.314 307.504 323.902 304.289 319.691 304.289H72.1542C67.9441 304.289 64.5312 307.504 64.5312 311.47C64.5313 315.437 67.9441 318.652 72.1542 318.652Z" fill="#395861"/>
<path d="M152.908 318.652H335.784C338.478 318.652 340.662 315.437 340.662 311.47C340.662 307.504 338.478 304.289 335.784 304.289H152.908C150.213 304.289 148.029 307.504 148.029 311.47C148.029 315.437 150.213 318.652 152.908 318.652Z" fill="#CADAF1"/>
<path d="M95.9649 309.139H79.1699V313.162H95.9649V309.139Z" fill="#3D62B3"/>
<path d="M118.865 309.139H102.07V313.162H118.865V309.139Z" fill="#3D62B3"/>
<path d="M219.82 158.447C219.82 158.447 218.14 164.994 217.094 165.421C216.048 165.849 212.53 169.058 210.614 171.3C208.699 173.542 203.1 177.662 204.052 180.164C205.003 182.666 208.509 181.175 211.497 177.484C208.429 184.683 205.283 194.798 207.202 196.125C209.122 197.451 213.187 188.486 214.547 186.386C215.908 184.286 210.289 197.392 211.392 199.346C212.493 201.3 216.002 196.721 219.517 188.539C221.084 186.513 216.458 197.477 218.304 198.59C220.149 199.703 222.99 191.817 224.119 189.23C225.247 186.644 223.08 194.93 223.797 196.293C224.513 197.655 226.431 196.998 227.947 193.704C229.462 190.41 233.293 179.345 233.148 176.054C233.004 172.764 232.053 170.72 232.053 170.72L234.141 162.291L219.82 158.447Z" fill="#FCA697"/>
<path d="M212.864 190.401L215.641 182.789" stroke="#DD6858" stroke-width="1.50603" stroke-miterlimit="2.1977" stroke-linecap="round" stroke-linejoin="round"/>
<path d="M218.836 192.442L220.06 185.396" stroke="#DD6858" stroke-width="1.50603" stroke-miterlimit="2.1977" stroke-linecap="round" stroke-linejoin="round"/>
<path d="M223.434 192.442L224.933 185.396" stroke="#DD6858" stroke-width="1.50603" stroke-miterlimit="2.1977" stroke-linecap="round" stroke-linejoin="round"/>
<path d="M214.547 181.708C217.646 185.894 227.405 185.376 227.405 185.376" stroke="#DD6858" stroke-width="1.50603" stroke-miterlimit="2.1977" stroke-linecap="round" stroke-linejoin="round"/>
<path d="M179.474 86.1403C179.474 86.1403 192.172 92.7958 201.049 97.3895C209.925 101.983 232.332 109.081 240.747 115.029C249.161 120.978 247.065 141.945 245.925 150.457C244.785 158.967 237.018 162.118 237.018 162.118L234.83 167.625L216.029 164.444L217.601 159.438C217.601 159.438 209.249 157.671 208.355 154.432C207.461 151.192 200.627 134.708 200.627 134.708L175.696 124.082L179.474 86.1403Z" fill="#C5673C"/>
<path d="M133.351 160.361C133.351 160.361 139.747 163.204 140.751 162.693C141.754 162.181 146.575 161.566 149.604 161.541C152.633 161.517 159.5 159.921 160.947 162.195C162.395 164.47 158.984 166.15 154.101 166.068C161.897 168.286 172.124 172.27 172.006 174.53C171.888 176.79 162.025 174.212 159.46 173.912C156.894 173.612 171.108 177.624 172.015 179.668C172.922 181.711 166.987 181.462 158.108 178.963C155.474 178.863 167.319 182.275 167.073 184.346C166.827 186.418 158.611 183.601 155.794 182.825C152.976 182.049 161.097 185.617 161.761 187.004C162.424 188.39 160.688 189.409 157.05 188.477C153.413 187.545 141.983 183.478 139.386 181.311C136.79 179.143 135.716 177.157 135.716 177.157L127.528 173.439L133.351 160.361Z" fill="#FCA697"/>
<path d="M159.489 184.254L153.19 181.806" stroke="#DD6858" stroke-width="1.50603" stroke-miterlimit="2.1977" stroke-linecap="round" stroke-linejoin="round"/>
<path d="M162.152 181.035L156.25 177.796" stroke="#DD6858" stroke-width="1.50603" stroke-miterlimit="2.1977" stroke-linecap="round" stroke-linejoin="round"/>
<path d="M164.597 175.328L156.627 173.155" stroke="#DD6858" stroke-width="1.50603" stroke-miterlimit="2.1977" stroke-linecap="round" stroke-linejoin="round"/>
<path d="M151.975 182.765C156.583 180.136 156.795 170.8 156.795 170.8" stroke="#DD6858" stroke-width="1.50603" stroke-miterlimit="2.1977" stroke-linecap="round" stroke-linejoin="round"/>
<path d="M127.637 66.5387C114.853 65.2265 104.315 78.0719 98.2401 86.6266C92.1654 95.1821 65.4627 126.449 65.0137 140.607C64.5648 154.764 107.564 175.635 114.14 177.325C120.717 179.016 124.599 174.095 124.599 174.095L131.651 176.644L141.519 160.829L135.277 159.355C135.277 159.355 137.621 159.66 136.353 153.15C135.085 146.639 105.953 129.428 105.953 129.428C105.953 129.428 139.443 84.7336 127.637 66.5387Z" fill="#C5673C"/>
<path d="M202.27 134.392C202.27 134.392 206.563 121.919 218.811 123.71" stroke="#964727" stroke-width="0.985946" stroke-miterlimit="2.2259" stroke-linecap="round" stroke-linejoin="bevel"/>
<path d="M186.863 97.3926C186.863 97.3926 185.185 116.509 179.715 123.172" stroke="#964727" stroke-width="0.985946" stroke-miterlimit="2.2259" stroke-linecap="round" stroke-linejoin="bevel"/>
<path d="M132.377 73.7789C132.377 73.7789 137.608 83.7954 134.796 91.0837C131.985 98.3721 110.78 122.715 110.78 122.715" stroke="#964727" stroke-width="0.985946" stroke-miterlimit="2.2259" stroke-linecap="round" stroke-linejoin="bevel"/>
<path d="M105.092 129.94C105.092 129.94 89.2916 125.754 80.6389 134.708" stroke="#964727" stroke-width="0.985946" stroke-miterlimit="2.2259" stroke-linecap="round" stroke-linejoin="bevel"/>
<path d="M132.552 161.946L125.295 172.108" stroke="#964727" stroke-width="0.985946" stroke-miterlimit="2.2259" stroke-linecap="round" stroke-linejoin="bevel"/>
<path d="M219.684 158.947L235.005 162.279" stroke="#964727" stroke-width="0.985946" stroke-miterlimit="2.2259" stroke-linecap="round" stroke-linejoin="bevel"/>
<path d="M162.768 108.893C162.768 108.893 171.61 116.288 176.765 116.363" stroke="#964727" stroke-width="0.963118" stroke-miterlimit="2.2259" stroke-linecap="round" stroke-linejoin="bevel"/>
<path d="M307.027 66.5069L304.273 69.3677L328.13 90.3295L330.883 87.4687L307.027 66.5069Z" fill="#8BB0CC"/>
<path d="M322.467 80.5556L320.215 82.8962C319.609 83.5263 319.652 84.5061 320.311 85.0855L340.45 102.779C341.109 103.358 342.135 103.317 342.741 102.687L344.993 100.346C345.6 99.7161 345.556 98.7363 344.897 98.1569L324.759 80.4639C324.099 79.8845 323.074 79.9255 322.467 80.5556Z" fill="#A4BFD8"/>
<path d="M322.286 80.7443L320.397 82.7068C319.69 83.4413 319.741 84.5837 320.51 85.2592L340.253 102.605C341.021 103.28 342.217 103.232 342.924 102.497" stroke="#556884" stroke-width="0.963118" stroke-miterlimit="10" stroke-linecap="round"/>
<path d="M311.774 36.7793C323.218 46.8345 323.966 63.8505 313.442 74.7857C302.919 85.7215 285.11 86.4351 273.666 76.3799C262.221 66.3246 261.474 49.3086 271.997 38.3735C282.52 27.4384 300.328 26.7248 311.774 36.7793Z" fill="#A4BFD8"/>
<path d="M313.721 58.1862C314.653 47.0994 306.003 37.3896 294.401 36.4987C282.798 35.6079 272.636 43.8733 271.704 54.96C270.771 66.0468 279.421 75.7566 291.024 76.6475C302.627 77.5384 312.788 69.2729 313.721 58.1862Z" fill="#D4EDF4"/>
<path d="M308.828 70.7328C300.648 79.2333 286.804 79.7889 277.908 71.9721C269.011 64.1561 268.43 50.928 276.611 42.4275" stroke="#556884" stroke-width="0.963118" stroke-miterlimit="10" stroke-linecap="round"/>
</svg>
