<svg width="352" height="328" viewBox="0 0 352 328" fill="none" xmlns="http://www.w3.org/2000/svg">
<path d="M288.828 327.131H62.5623C37.8642 301.512 20.0715 267.312 11.3484 229.469C-14.4976 117.35 27.1753 85.2396 64.7679 90.6247C141.498 101.623 63.7435 51.1615 106.978 16.6338C144.868 -13.6372 218.615 -0.677596 237.722 40.023C264.675 97.4236 343.779 69.5517 351.326 159.462C355.635 210.8 339.77 280.905 288.828 327.131Z" fill="#D4EDF4"/>
<path d="M260.937 59.575C250.215 49.0697 241.522 33.49 244.841 19.5223C248.844 2.67269 269.875 5.43273 280.353 12.0341C294.316 20.8296 303.351 43.2863 297.634 60.644C293.969 71.7744 284.619 74.0133 275.524 69.9729C270.842 67.8925 265.689 64.2325 260.937 59.575Z" fill="#F3ECE6"/>
<path d="M69.8745 307.405C66.1348 287.423 62.1325 267.409 55.3776 248.139C48.6226 228.868 39.0027 210.259 25.0147 194.802C41.275 233.725 57.7157 273.359 61.1789 315.046" fill="#6FB4C4"/>
<path d="M65.5575 315.622C60.9902 275.873 36.819 238.495 1.37506 216.373C28.2633 244.503 47.8298 278.767 57.9074 315.371" fill="#6FB4C4"/>
<path d="M66.9327 306.046C53.7788 279.699 29.1434 258.612 0 248.755C23.6266 267.093 43.3883 289.808 57.816 315.21" fill="#6FB4C4"/>
<path d="M66.8734 308.245C52.8228 272.381 47.4239 233.552 51.1961 195.5C55.5447 234.801 62.0761 274.554 79.8712 310.355" fill="#9DD8E5"/>
<path d="M66.274 295.163C55.829 263.788 39.3053 234.207 17.7567 208.306C38.1078 241.08 53.6941 276.464 63.9465 313.167" fill="#9DD8E5"/>
<path d="M65.6304 301.326C57.8877 288.509 50.0872 275.654 40.4438 264.031C30.8003 252.409 19.1781 241.981 5.2462 235.212C29.7516 257.882 49.0198 285.525 61.3436 315.691" fill="#9DD8E5"/>
<path d="M66.4949 309.932C53.1175 288.167 27.265 273.664 0.525574 272.925C25.0074 280.979 46.4357 296.985 60.3066 317.579" fill="#9DD8E5"/>
<path d="M305.987 257.187C307.166 252.532 312.938 246.702 317.394 246.465C318.601 246.4 319.888 246.637 320.963 246.065C323.72 244.597 322.699 239.521 325.063 237.404C326.496 236.122 328.65 236.422 330.442 237.096C332.234 237.77 334.013 238.766 335.889 238.675C337.71 238.586 339.31 237.487 340.984 236.742C343.123 235.788 345.63 235.417 347.782 236.469C349.934 237.521 351.485 240.311 350.738 242.697C349.851 245.527 346.574 246.359 344.696 248.521C340.894 252.899 343.663 261.467 339.4 265.309C336.701 267.742 332.345 267.005 329.677 269.477C327.488 271.503 327.094 275.081 325.225 277.457C323.162 280.078 319.549 280.785 316.408 279.942C313.268 279.099 310.53 276.945 308.105 274.574C308.105 274.574 303.679 266.301 305.987 257.187Z" fill="#5BABBA"/>
<path d="M345.936 240.229C337.658 245.653 329.396 251.173 321.899 257.788C314.4 264.401 307.65 272.172 302.964 281.377" stroke="#9DD8E5" stroke-miterlimit="10" stroke-linecap="round" stroke-linejoin="round"/>
<path d="M328.889 252.086C328.808 248.396 328.151 244.704 326.955 241.216" stroke="#9DD8E5" stroke-miterlimit="10" stroke-linecap="round" stroke-linejoin="round"/>
<path d="M324.073 256.032C329.339 256.346 334.474 259.472 337.538 264.229" stroke="#9DD8E5" stroke-miterlimit="10" stroke-linecap="round" stroke-linejoin="round"/>
<path d="M337.852 245.562C340.006 245.28 342.23 245.529 344.313 246.284" stroke="#9DD8E5" stroke-miterlimit="10" stroke-linecap="round" stroke-linejoin="round"/>
<path d="M310.473 269.773C314.773 270.156 318.996 271.925 322.469 274.8" stroke="#9DD8E5" stroke-miterlimit="10" stroke-linecap="round" stroke-linejoin="round"/>
<path d="M312.908 266.926C312.752 262.295 311.886 257.671 310.361 253.302" stroke="#9DD8E5" stroke-miterlimit="10" stroke-linecap="round" stroke-linejoin="round"/>
<path d="M308.942 262.08C312.762 260.719 316.882 260.158 320.473 258.276C324.063 256.392 327.136 252.586 326.409 248.597C325.96 246.138 324.148 244.017 324.059 241.519C323.952 238.56 326.237 236.14 328.227 233.948C330.218 231.757 332.183 228.883 331.301 226.058C330.67 224.038 328.666 222.494 328.632 220.379C328.591 217.797 331.457 216.111 332.183 213.633C332.85 211.352 331.402 208.788 329.25 207.78C327.098 206.771 324.481 207.134 322.404 208.289C320.328 209.445 318.726 211.302 317.41 213.281C315.169 216.65 313.405 220.69 309.806 222.54C308.161 223.385 306.281 223.676 304.61 224.468C301.14 226.114 298.904 230.05 299.269 233.873C299.508 236.388 300.74 238.981 299.802 241.327C299.156 242.942 297.631 243.996 296.374 245.198C292.929 248.493 291.25 253.536 292.032 258.238C292.627 261.819 295.326 267.185 299.073 268.455C301.119 269.148 301.951 266.483 303.292 265.285C304.913 263.833 306.903 262.806 308.942 262.08Z" fill="#85C5D7"/>
<path d="M297.182 282.536C301.868 258.26 311.626 234.976 325.646 214.612" stroke="#9DD8E5" stroke-miterlimit="10" stroke-linecap="round"/>
<path d="M317.851 226.961C319.831 226.056 321.951 225.458 324.113 225.193" stroke="#9DD8E5" stroke-miterlimit="10" stroke-linecap="round"/>
<path d="M311.836 238.45C310.827 235.307 309.341 232.319 307.444 229.618" stroke="#9DD8E5" stroke-miterlimit="10" stroke-linecap="round"/>
<path d="M305.343 253.651C310.489 252.169 315.816 251.316 321.167 251.116" stroke="#9DD8E5" stroke-miterlimit="10" stroke-linecap="round"/>
<path d="M303.733 257.732C302.36 254.626 299.653 252.137 296.443 251.03" stroke="#9DD8E5" stroke-miterlimit="10" stroke-linecap="round"/>
<path d="M303.546 297.086C306.943 298.31 310.097 300.255 313.632 300.99C317.168 301.725 321.437 300.843 323.192 297.687C324.274 295.741 324.227 293.256 325.578 291.486C327.179 289.39 330.12 289.016 332.729 288.634C335.338 288.252 338.315 287.386 339.307 284.943C340.015 283.197 339.51 281.001 340.682 279.526C342.114 277.726 345.04 278.187 346.941 276.891C348.691 275.698 349.144 273.116 348.235 271.204C347.325 269.293 345.317 268.062 343.235 267.683C341.152 267.304 338.999 267.677 336.974 268.294C333.526 269.345 330.027 271.127 326.504 270.364C324.893 270.016 323.436 269.152 321.837 268.752C318.519 267.922 314.754 269.367 312.842 272.203C311.584 274.069 310.965 276.551 308.993 277.634C307.635 278.38 305.989 278.242 304.444 278.359C300.21 278.679 296.202 281.199 294.08 284.877C292.465 287.677 291.287 292.898 293.147 295.89C294.163 297.525 296.243 296.162 297.843 296.095C299.781 296.015 301.732 296.433 303.546 297.086Z" fill="#85C5D7"/>
<path d="M283.881 304.513C300.837 290.457 320.722 279.953 341.889 273.868" stroke="#9DD8E5" stroke-miterlimit="10" stroke-linecap="round"/>
<path d="M329.539 277.957C331.414 278.454 333.211 279.242 334.848 280.283" stroke="#9DD8E5" stroke-miterlimit="10" stroke-linecap="round"/>
<path d="M318.9 282.462C319.983 279.728 320.651 276.831 320.873 273.899" stroke="#9DD8E5" stroke-miterlimit="10" stroke-linecap="round"/>
<path d="M305.836 289.25C310.215 291.141 314.363 293.567 318.16 296.456" stroke="#9DD8E5" stroke-miterlimit="10" stroke-linecap="round"/>
<path d="M302.419 291.148C303.231 288.234 302.776 284.991 301.193 282.412" stroke="#9DD8E5" stroke-miterlimit="10" stroke-linecap="round"/>
<mask id="mask0_24_801" style="mask-type:luminance" maskUnits="userSpaceOnUse" x="3" y="0" width="349" height="328">
<path d="M288.827 327.131H62.5611C37.8631 301.512 20.0704 267.312 11.3472 229.469C-14.4988 117.35 27.1741 85.2396 64.7667 90.6247C141.497 101.623 63.7424 51.1615 106.977 16.6338C144.867 -13.6372 218.614 -0.677597 237.721 40.023C264.674 97.4236 343.778 69.5517 351.325 159.462C355.634 210.8 339.769 280.905 288.827 327.131Z" fill="white"/>
</mask>
<g mask="url(#mask0_24_801)">
<path d="M209.12 290.169H146.699C141.862 290.169 137.94 286.247 137.94 281.41V249.262C137.94 244.425 141.862 240.503 146.699 240.503H209.12C213.957 240.503 217.879 244.425 217.879 249.262V281.41C217.879 286.247 213.958 290.169 209.12 290.169Z" fill="#01566D"/>
<path d="M213.484 252.26V278.418C213.484 283.401 209.447 287.439 204.464 287.439H151.36C149.165 287.439 147.155 286.66 145.588 285.361C143.595 283.695 142.33 281.207 142.33 278.418V252.26C142.33 247.276 146.375 243.23 151.36 243.23H204.464C208.559 243.23 212.019 245.969 213.116 249.704C213.358 250.517 213.484 251.372 213.484 252.26Z" fill="#F94B8A"/>
<path d="M213.485 252.26V278.418C213.485 283.401 209.448 287.439 204.464 287.439H151.36C149.166 287.439 147.156 286.66 145.589 285.361C145.346 284.549 145.212 283.687 145.212 282.79V256.632C145.212 251.648 149.257 247.611 154.242 247.611H207.346C209.54 247.611 211.55 248.398 213.117 249.705C213.359 250.517 213.485 251.372 213.485 252.26Z" fill="#F7376D"/>
<path d="M311.726 273.147H44.4864V370.408H311.726V273.147Z" fill="#01818E"/>
<path d="M311.726 276.957H44.4864V284.89H311.726V276.957Z" fill="#01566D"/>
<path d="M319.064 269.651H36.7521V276.957H319.064V269.651Z" fill="#00657C"/>
<path d="M268.971 266.179H203.175V269.66H268.971V266.179Z" fill="#75B3C8"/>
<path d="M301.869 266.179H236.073V269.66H301.869V266.179Z" fill="#448399"/>
<path d="M246.549 228.436H314.799L299.978 267.92H234.182L246.549 228.436Z" fill="#75B3C8"/>
<path d="M249.093 228.436H317.342L302.522 267.92H236.726L249.093 228.436Z" fill="#4A94A0"/>
<path d="M282.598 248.179C282.598 250.309 280.107 252.037 277.034 252.037C273.961 252.037 271.47 250.309 271.47 248.179C271.47 246.048 273.961 244.319 277.034 244.319C280.107 244.319 282.598 246.047 282.598 248.179Z" fill="#D3E8F9"/>
<path d="M72.7572 220.023H59.9261V269.651H72.7572V220.023Z" fill="#36A993"/>
<path d="M70.8348 226.057H61.8474V249.177H70.8348V226.057Z" fill="white"/>
<path d="M69.2344 228.436H63.4778V229.357H69.2344V228.436Z" fill="#063C50"/>
<path d="M69.2185 231.736H63.4619V232.657H69.2185V231.736Z" fill="#063C50"/>
<path d="M69.2185 235.038H63.4619V235.959H69.2185V235.038Z" fill="#063C50"/>
<path d="M69.2424 238.338H63.4857V239.259H69.2424V238.338Z" fill="#063C50"/>
<path d="M69.2265 241.64H63.4698V242.561H69.2265V241.64Z" fill="#063C50"/>
<path d="M69.2265 244.94H63.4698V245.862H69.2265V244.94Z" fill="#063C50"/>
<path d="M66.3409 266.775C68.6254 266.775 70.4773 264.923 70.4773 262.639C70.4773 260.354 68.6254 258.502 66.3409 258.502C64.0565 258.502 62.2045 260.354 62.2045 262.639C62.2045 264.923 64.0565 266.775 66.3409 266.775Z" fill="white"/>
<path d="M66.3405 265.573C67.9609 265.573 69.2745 264.259 69.2745 262.639C69.2745 261.018 67.9609 259.705 66.3405 259.705C64.7201 259.705 63.4065 261.018 63.4065 262.639C63.4065 264.259 64.7201 265.573 66.3405 265.573Z" fill="#063C50"/>
<path d="M88.16 220.023H75.3289V269.651H88.16V220.023Z" fill="#F7376D"/>
<path d="M86.2362 226.057H77.2488V249.177H86.2362V226.057Z" fill="white"/>
<path d="M84.637 228.436H78.8804V229.357H84.637V228.436Z" fill="#063C50"/>
<path d="M84.6212 231.736H78.8645V232.657H84.6212V231.736Z" fill="#063C50"/>
<path d="M84.6212 235.038H78.8645V235.959H84.6212V235.038Z" fill="#063C50"/>
<path d="M84.645 238.338H78.8883V239.259H84.645V238.338Z" fill="#063C50"/>
<path d="M84.6291 241.64H78.8725V242.561H84.6291V241.64Z" fill="#063C50"/>
<path d="M84.6291 244.94H78.8725V245.862H84.6291V244.94Z" fill="#063C50"/>
<path d="M81.7425 266.775C84.027 266.775 85.8789 264.923 85.8789 262.639C85.8789 260.354 84.027 258.502 81.7425 258.502C79.458 258.502 77.6061 260.354 77.6061 262.639C77.6061 264.923 79.458 266.775 81.7425 266.775Z" fill="white"/>
<path d="M81.7419 265.573C83.3624 265.573 84.6759 264.259 84.6759 262.639C84.6759 261.018 83.3624 259.705 81.7419 259.705C80.1215 259.705 78.8079 261.018 78.8079 262.639C78.8079 264.259 80.1215 265.573 81.7419 265.573Z" fill="#063C50"/>
<path d="M103.528 220.023H90.697V269.651H103.528V220.023Z" fill="#FCB211"/>
<path d="M101.608 226.057H92.62V249.177H101.608V226.057Z" fill="white"/>
<path d="M100.008 228.436H94.251V229.357H100.008V228.436Z" fill="#063C50"/>
<path d="M99.9918 231.736H94.2351V232.657H99.9918V231.736Z" fill="#063C50"/>
<path d="M99.9918 235.038H94.2351V235.959H99.9918V235.038Z" fill="#063C50"/>
<path d="M100.016 238.338H94.259V239.259H100.016V238.338Z" fill="#063C50"/>
<path d="M99.9997 241.64H94.2431V242.561H99.9997V241.64Z" fill="#063C50"/>
<path d="M99.9997 244.94H94.2431V245.862H99.9997V244.94Z" fill="#063C50"/>
<path d="M97.1134 266.775C99.3978 266.775 101.25 264.923 101.25 262.639C101.25 260.354 99.3978 258.502 97.1134 258.502C94.8289 258.502 92.977 260.354 92.977 262.639C92.977 264.923 94.8289 266.775 97.1134 266.775Z" fill="white"/>
<path d="M97.113 265.573C98.7334 265.573 100.047 264.259 100.047 262.639C100.047 261.018 98.7334 259.705 97.113 259.705C95.4926 259.705 94.179 261.018 94.179 262.639C94.179 264.259 95.4926 265.573 97.113 265.573Z" fill="#063C50"/>
</g>
<path d="M223.256 72.6622C223.256 72.6622 227.457 86.0575 213.808 95.2627C213.808 95.2627 224.688 100.575 231.313 98.5049C237.938 96.435 250.217 85.738 250.919 64.3885L223.256 72.6622Z" fill="white"/>
<path d="M236.541 98.1212C240.776 96.3611 243.914 94.5669 246.597 91.1768C248.753 88.4526 250.919 83.9918 250.917 80.0668C248.217 87.4648 243.449 93.8865 236.541 98.1212Z" fill="white"/>
<path d="M227.059 100.816C224.918 101.358 222.756 101.901 220.583 101.783C218.806 101.687 216.179 101.169 214.946 99.1861C216.271 98.6162 219.152 100.452 220.724 100.729C222.825 101.101 224.955 101.133 227.059 100.816Z" fill="white"/>
<path d="M266.342 123.067C265.922 122.665 279.069 108.084 279.069 108.084C279.069 108.084 292.171 119.358 304.937 115.678L300.327 138.63C300.327 138.63 282.991 139.033 266.342 123.067Z" fill="white"/>
<path d="M297.221 139.946C297.221 139.946 282.114 139.052 268.884 127.968C268.884 127.968 277.644 141.197 297.221 139.946Z" fill="white"/>
<path d="M305.803 117.688C305.803 117.688 303.836 130.471 302.406 135.834C302.406 135.834 306.429 130.381 305.803 117.688Z" fill="white"/>
<path d="M138.542 36.2166C138.542 36.2166 152.204 34.5281 155.895 26.2496C159.006 19.2694 160.192 14.955 167.329 11.3853L190.606 18.3581C190.606 18.3581 180.081 23.6871 176.293 35.3191C173.116 45.0748 160.44 47.7283 160.44 47.7283L138.542 36.2166Z" fill="white"/>
<path d="M185.166 25.1871C185.166 25.1871 178.869 31.2259 177.33 38.3768C175.791 45.5277 167.133 48.7405 167.133 48.7405C167.133 48.7405 176.289 48.117 178.674 39.1507C181.06 30.1853 184.445 25.9903 185.166 25.1871Z" fill="white"/>
<path d="M139.285 39.3678L155.475 47.7284C155.475 47.7284 144.992 45.2066 139.285 39.3678Z" fill="white"/>
<path d="M133.464 98.8674C133.464 98.8674 127.365 85.2761 140.599 73.8718C140.599 73.8718 128.471 69.6321 121.747 72.6401C115.024 75.6481 103.421 88.4532 105.345 111.039L133.464 98.8674Z" fill="white"/>
<path d="M118.768 72.7183C118.768 72.7183 104.06 81.4317 103.785 100.557C103.785 100.557 99.7214 82.0731 118.768 72.7183Z" fill="white"/>
<path d="M131.218 101.77L111.093 110.141C111.093 110.141 122.711 108.116 131.218 101.77Z" fill="white"/>
<path d="M40.1298 138.509C39.5192 138.46 40.5444 117.799 40.5444 117.799C40.5444 117.799 58.7509 118.279 66.7237 106.774L78.2443 128.586C78.2443 128.586 64.3571 140.459 40.1298 138.509Z" fill="white"/>
<path d="M44.053 140.061C44.053 140.061 59.2108 141.952 75.7304 132.244C75.7304 132.244 61.5481 144.712 44.053 140.061Z" fill="white"/>
<path d="M43.0495 115.828C43.0495 115.828 54.1237 116.351 63.0038 108.829C63.0038 108.829 52.3474 114.993 43.0495 115.828Z" fill="white"/>
<path d="M241.73 197.195C241.73 197.195 237.325 207.239 219.402 211.492C202.105 215.589 178.421 211.817 176.785 211.551C175.149 211.822 151.473 215.64 134.168 211.579C116.236 207.362 111.811 197.327 111.811 197.327L120.461 176.838L150.913 179.195L153.874 175.704L176.754 181.747L199.621 175.657L202.59 179.143L233.225 176.702L241.73 197.195Z" fill="#052C39"/>
<path d="M180.356 215.704C180.356 215.704 186.204 214.956 189.168 213.979" stroke="#AE3838" stroke-width="0.75" stroke-miterlimit="10" stroke-linecap="round"/>
<path d="M138.345 222.462C144.851 221.466 149.094 220.967 154.468 220.183C159.842 219.399 167.761 218.4 167.401 211.683C167.04 204.965 157.282 205.116 155.02 205.33C152.756 205.545 140.663 206.053 134.935 205.28C133.532 205.091 132.481 204.975 131.572 204.931C131.572 204.931 131.571 204.931 131.569 204.931C128.758 204.797 127.268 205.369 120.862 206.71C112.38 208.486 112.454 212.587 112.454 212.587C112.454 212.587 112.25 215.275 115.595 217.422C115.597 217.424 115.597 217.424 115.598 217.425C116.165 217.787 116.833 218.136 117.622 218.451C123.068 220.638 131.84 223.458 138.345 222.462Z" fill="#F2F9F9"/>
<path d="M165.632 211.685C165.632 211.685 166.625 214.017 160.969 216.003C155.313 217.989 150.542 219.656 147.64 218.245C144.74 216.833 143.601 211.872 145.12 208.771C146.639 205.671 152.166 206.466 154.759 207.17C157.354 207.875 162.634 207.964 164.426 209.377C166.221 210.788 165.632 211.685 165.632 211.685Z" fill="#FFA78F"/>
<path d="M115.593 217.421C112.37 214.557 112.859 211.231 116.48 209.401C120.062 207.591 131.312 204.99 131.567 204.93C128.756 204.797 127.267 205.368 120.861 206.709C112.378 208.485 112.452 212.587 112.452 212.587C112.452 212.587 112.248 215.274 115.593 217.421Z" fill="#B2C9D8"/>
<path d="M141.45 215.808C141.305 215.808 141.162 215.738 141.076 215.607C140.997 215.487 139.168 212.649 140.923 209.82C141.053 209.609 141.329 209.546 141.539 209.675C141.749 209.805 141.813 210.082 141.684 210.292C140.234 212.627 141.758 215.014 141.824 215.114C141.959 215.321 141.901 215.598 141.695 215.734C141.619 215.784 141.534 215.808 141.45 215.808Z" fill="#212473"/>
<path d="M139.565 216.027C139.419 216.027 139.277 215.957 139.191 215.826C139.112 215.707 137.283 212.869 139.036 210.04C139.167 209.829 139.442 209.766 139.652 209.895C139.862 210.026 139.927 210.301 139.797 210.511C138.348 212.847 139.872 215.234 139.938 215.334C140.073 215.54 140.015 215.818 139.808 215.953C139.734 216.004 139.648 216.027 139.565 216.027Z" fill="#212473"/>
<path d="M137.675 216.029C137.53 216.029 137.387 215.959 137.301 215.828C137.222 215.708 135.393 212.87 137.147 210.041C137.278 209.831 137.553 209.767 137.764 209.896C137.973 210.027 138.038 210.303 137.908 210.513C136.46 212.848 137.983 215.235 138.049 215.335C138.184 215.542 138.126 215.819 137.92 215.955C137.844 216.005 137.759 216.029 137.675 216.029Z" fill="#212473"/>
<path d="M135.79 216.175C135.644 216.175 135.501 216.104 135.415 215.974C135.337 215.855 133.507 213.017 135.262 210.188C135.392 209.978 135.668 209.915 135.878 210.044C136.088 210.174 136.152 210.45 136.023 210.66C134.567 213.007 136.146 215.456 136.163 215.481C136.298 215.687 136.242 215.964 136.035 216.101C135.959 216.151 135.873 216.175 135.79 216.175Z" fill="#212473"/>
<path d="M161.886 217.574C158.48 217.797 155.706 217.918 154.062 217.97C153.016 218.005 152.435 218.022 152.435 218.022C152.435 218.022 149.204 215.724 148.621 207.343C148.621 207.343 150.881 206.557 154.42 205.33C155.188 205.068 156.005 204.789 156.881 204.484L160.195 204.886C160.195 204.886 162.983 211.122 163.441 213.045C163.695 214.115 162.778 216.047 161.886 217.574Z" fill="#FFA78F"/>
<path d="M161.885 217.574L154.061 217.97L154.42 205.331C155.187 205.069 156.004 204.789 156.881 204.485L160.194 204.887C160.194 204.887 162.983 211.123 163.441 213.046C163.694 214.115 162.777 216.047 161.885 217.574Z" fill="#F9867D"/>
<path d="M229.942 205.034C224.683 207.561 215.562 209.863 205.548 211.83C183.975 216.068 158.279 218.758 158.279 218.758L155.076 202.775L181.205 193.844L228.312 177.751C228.312 177.751 239.353 172.815 243.083 184.034C246.812 195.253 240.071 200.176 229.942 205.034Z" fill="#043649"/>
<path d="M214.359 222.327C207.85 221.344 203.607 220.854 198.232 220.08C192.857 219.308 184.936 218.324 185.282 211.607C185.629 204.888 195.388 205.019 197.651 205.228C199.915 205.44 212.009 205.922 217.736 205.138C219.138 204.946 220.189 204.828 221.098 204.781C221.098 204.781 221.099 204.781 221.101 204.781C223.912 204.642 225.402 205.21 231.811 206.538C240.298 208.297 240.232 212.399 240.232 212.399C240.232 212.399 240.441 215.086 237.1 217.239C237.099 217.241 237.099 217.241 237.097 217.242C236.531 217.605 235.864 217.955 235.075 218.272C229.632 220.472 220.865 223.31 214.359 222.327Z" fill="#F2F9F9"/>
<path d="M187.049 211.605C187.049 211.605 186.062 213.939 191.721 215.913C197.381 217.888 202.155 219.545 205.053 218.127C207.952 216.71 209.079 211.746 207.554 208.649C206.029 205.551 200.503 206.358 197.911 207.067C195.319 207.777 190.039 207.877 188.249 209.293C186.459 210.709 187.049 211.605 187.049 211.605Z" fill="#FFA78F"/>
<path d="M237.1 217.24C240.318 214.369 239.821 211.044 236.197 209.222C232.611 207.419 221.356 204.841 221.101 204.782C223.912 204.643 225.402 205.211 231.811 206.539C240.298 208.298 240.232 212.4 240.232 212.4C240.232 212.4 240.441 215.086 237.1 217.24Z" fill="#B2C9D8"/>
<path d="M211.241 215.678C211.387 215.678 211.529 215.608 211.614 215.477C211.693 215.357 213.517 212.515 211.756 209.69C211.625 209.48 211.349 209.418 211.139 209.547C210.929 209.678 210.865 209.953 210.996 210.164C212.45 212.497 210.93 214.886 210.865 214.986C210.731 215.194 210.789 215.471 210.996 215.606C211.072 215.655 211.157 215.678 211.241 215.678Z" fill="#212473"/>
<path d="M213.127 215.894C213.272 215.894 213.414 215.823 213.5 215.692C213.579 215.572 215.402 212.73 213.642 209.905C213.511 209.696 213.236 209.632 213.025 209.762C212.815 209.893 212.751 210.169 212.882 210.379C214.336 212.712 212.816 215.102 212.751 215.202C212.617 215.408 212.675 215.686 212.881 215.821C212.958 215.871 213.043 215.894 213.127 215.894Z" fill="#212473"/>
<path d="M215.012 215.892C215.158 215.892 215.3 215.821 215.385 215.69C215.463 215.571 217.288 212.729 215.528 209.904C215.397 209.693 215.121 209.631 214.911 209.761C214.701 209.892 214.637 210.167 214.767 210.378C216.221 212.71 214.702 215.1 214.637 215.2C214.502 215.407 214.56 215.685 214.767 215.819C214.843 215.869 214.928 215.892 215.012 215.892Z" fill="#212473"/>
<path d="M216.898 216.034C217.043 216.034 217.186 215.964 217.272 215.833C217.35 215.713 219.173 212.871 217.413 210.046C217.282 209.836 217.007 209.774 216.796 209.903C216.586 210.034 216.522 210.309 216.653 210.52C218.114 212.865 216.539 215.317 216.523 215.342C216.388 215.548 216.445 215.826 216.652 215.962C216.729 216.011 216.814 216.034 216.898 216.034Z" fill="#212473"/>
<path d="M190.809 217.486C194.215 217.703 196.99 217.817 198.633 217.866C199.679 217.899 200.261 217.915 200.261 217.915C200.261 217.915 203.488 215.61 204.053 207.228C204.053 207.228 201.793 206.446 198.25 205.228C197.482 204.967 196.664 204.689 195.786 204.387L192.473 204.795C192.473 204.795 189.696 211.037 189.244 212.96C188.992 214.031 189.914 215.961 190.809 217.486Z" fill="#FFA78F"/>
<path d="M190.809 217.486L198.633 217.866L198.25 205.228C197.482 204.967 196.664 204.689 195.786 204.387L192.473 204.795C192.473 204.795 189.696 211.037 189.244 212.96C188.992 214.031 189.914 215.961 190.809 217.486Z" fill="#F9867D"/>
<path d="M194.422 218.667L197.588 202.672L124.303 177.803C124.303 177.803 113.251 172.886 109.543 184.111C105.835 195.337 112.589 200.251 122.724 205.088C139.336 213.014 194.422 218.667 194.422 218.667Z" fill="#063C50"/>
<path d="M259.19 158.397L256.683 167.583C256.683 167.583 249.715 170.053 236.663 172.266C236.539 172.283 236.408 172.305 236.276 172.326C229.254 173.492 221.757 173.593 216.253 173.441L219.305 159.429C223.208 159.03 228.556 158.989 234.191 159.026C243.477 159.073 253.54 159.312 259.19 158.397Z" fill="#FFA78F"/>
<path d="M234.189 159.026L236.661 172.266C236.537 172.284 236.406 172.305 236.275 172.327C229.252 173.493 221.756 173.594 216.251 173.442L219.304 159.43C223.208 159.031 228.555 158.99 234.189 159.026Z" fill="#F9867D"/>
<path d="M254.682 168.239C254.682 168.239 257.043 167.761 258.578 167.993C260.113 168.226 265.72 167.681 270.319 164.483C274.916 161.284 278.103 160.686 279.458 159.443C280.813 158.2 277.954 157.555 274.345 159.465C271.631 160.902 271.417 160.599 271.417 160.599C271.417 160.599 275.793 157.444 278.535 156.11C281.277 154.775 281.986 154.508 282.25 153.888C282.514 153.267 280.54 151.962 277.931 153.518C275.322 155.074 272.426 156.39 271.32 157.057C271.32 157.057 274.149 155.101 274.922 154.414C275.696 153.726 279.816 150.127 280.456 149.572C281.097 149.017 281.388 148.527 281.034 148.026C280.747 147.619 279.771 147.367 277.589 149.16C274.992 151.295 269.498 154.596 269.498 154.596C269.498 154.596 272.209 152.228 271.849 149.808C271.488 147.389 265.314 145.366 264.694 145.456C264.075 145.547 264.166 146.874 265.26 147.728C266.355 148.581 268.453 149.61 268.544 150.642C268.635 151.676 266.279 154.101 265.276 154.399C264.273 154.697 264.984 149.155 264.818 148.112C264.653 147.069 263.247 145.548 262.421 145.786C261.595 146.024 262.162 148.355 262.106 149.831C262.051 151.307 261.052 153.73 259.787 155.297C258.521 156.865 257.697 158.165 257.258 159.613C256.818 161.061 254.901 161.213 254.901 161.213L254.682 168.239Z" fill="#FFA78F"/>
<path d="M265.387 156.67C265.387 156.67 263.972 159.927 261.597 161.269" stroke="#AE3838" stroke-width="0.75" stroke-miterlimit="10" stroke-linecap="round"/>
<path d="M266.276 156.251C266.276 156.251 267.127 160.36 268.491 162.014" stroke="#AE3838" stroke-width="0.75" stroke-miterlimit="10" stroke-linecap="round"/>
<path d="M229.604 158.427L230.128 173.907C230.128 173.907 216.253 174.926 212.095 173.505C210.282 172.885 207.896 167.554 206.171 163.179C204.438 158.805 202.383 152.441 202.383 152.441L197.488 114.849C197.488 114.849 202.84 115.405 207.291 120.016C211.151 124.015 218.01 154.461 220.803 157.314C222.469 159.017 224.268 157.69 229.604 158.427Z" fill="#F2F9F9"/>
<path d="M226.442 157.957C226.442 157.957 229.408 156.374 232.301 157.881L233.795 173.389C233.795 173.389 229.932 175.184 227.995 174.253L226.442 157.957Z" fill="#C7D7E2"/>
<path d="M96.6397 158.563L99.1656 167.744C99.1656 167.744 106.138 170.201 119.196 172.386C119.32 172.403 119.452 172.424 119.583 172.445C126.607 173.598 134.104 173.684 139.608 173.52L136.527 159.514C132.623 159.124 127.276 159.093 121.641 159.142C112.355 159.206 102.292 159.466 96.6397 158.563Z" fill="#FFA78F"/>
<path d="M121.642 159.141L119.196 172.386C119.321 172.403 119.453 172.424 119.583 172.445C126.608 173.598 134.105 173.684 139.609 173.52L136.528 159.514C132.624 159.123 127.277 159.093 121.642 159.141Z" fill="#F9867D"/>
<path d="M101.167 168.395C101.167 168.395 98.8049 167.922 97.27 168.158C95.7351 168.394 90.1264 167.86 85.5226 164.671C80.9187 161.482 77.7303 160.891 76.3734 159.65C75.0158 158.41 77.8733 157.759 81.4862 159.662C84.2031 161.092 84.4169 160.788 84.4169 160.788C84.4169 160.788 80.0342 157.643 77.2896 156.315C74.545 154.985 73.8361 154.719 73.5711 154.099C73.3053 153.479 75.2767 152.17 77.8888 153.72C80.5009 155.271 83.3999 156.582 84.5072 157.246C84.5072 157.246 81.674 155.297 80.8992 154.611C80.1245 153.924 75.9978 150.334 75.3556 149.781C74.7133 149.227 74.4215 148.738 74.7743 148.236C75.0613 147.828 76.036 147.574 78.2213 149.363C80.822 151.492 86.3225 154.782 86.3225 154.782C86.3225 154.782 83.6072 152.42 83.9625 149.999C84.3178 147.579 90.4874 145.544 91.1077 145.633C91.7272 145.722 91.6386 147.05 90.5459 147.906C89.4533 148.762 87.3575 149.795 87.268 150.828C87.1794 151.861 89.5403 154.282 90.5435 154.578C91.5467 154.874 90.8248 149.334 90.9882 148.291C91.1516 147.247 92.5532 145.723 93.3799 145.959C94.2067 146.195 93.645 148.527 93.7035 150.003C93.762 151.48 94.7652 153.9 96.0343 155.465C97.3033 157.03 98.1293 158.329 98.5716 159.775C99.0138 161.222 100.932 161.37 100.932 161.37L101.167 168.395Z" fill="#FFA78F"/>
<path d="M90.4384 156.848C90.4384 156.848 91.8611 160.102 94.2383 161.439" stroke="#AE3838" stroke-width="0.75" stroke-miterlimit="10" stroke-linecap="round"/>
<path d="M89.5493 156.431C89.5493 156.431 88.707 160.541 87.3469 162.199" stroke="#AE3838" stroke-width="0.75" stroke-miterlimit="10" stroke-linecap="round"/>
<path d="M126.226 158.533L125.734 174.014C125.734 174.014 139.61 175.004 143.766 173.575C145.578 172.951 147.953 167.615 149.668 163.237C151.393 158.859 153.435 152.491 153.435 152.491L158.253 114.89C158.253 114.89 153.442 114.207 149.001 118.827C145.149 122.834 137.812 154.543 135.025 157.402C133.364 159.107 131.561 157.784 126.226 158.533Z" fill="#F2F9F9"/>
<path d="M129.388 158.055C129.388 158.055 126.419 156.479 123.528 157.992L122.066 173.503C122.066 173.503 125.933 175.29 127.868 174.355L129.388 158.055Z" fill="#C7D7E2"/>
<path d="M187.29 117.327L176.596 127.825L165.873 117.349C167.133 115.517 167.96 113.455 168.496 111.474C169.694 107.051 169.451 103.047 169.451 103.047L183.682 103.032C183.682 103.032 183.55 105.303 184.008 108.313C184.414 111.085 185.321 114.49 187.29 117.327Z" fill="#FFA78F"/>
<path d="M184.008 108.314C181.074 109.789 175.824 111.677 168.496 111.475C169.694 107.052 169.451 103.048 169.451 103.048L183.681 103.033C183.681 103.033 183.549 105.304 184.008 108.314Z" fill="#F9867D"/>
<path d="M198.615 89.6671C199.584 91.6004 198.183 94.2653 195.485 95.6181C192.786 96.9708 189.813 96.5001 188.843 94.5669C187.874 92.6328 189.276 89.9687 191.974 88.6159C194.672 87.2623 197.646 87.7339 198.615 89.6671Z" fill="#F9867D"/>
<path d="M154.436 90.006C153.496 91.9539 154.938 94.5968 157.658 95.9082C160.376 97.2195 163.343 96.7033 164.282 94.7546C165.222 92.8067 163.78 90.1637 161.06 88.8524C158.342 87.5411 155.376 88.0573 154.436 90.006Z" fill="#F9867D"/>
<path d="M193.363 88.2338C193.442 98.6219 185.99 108.136 176.895 108.206C167.8 108.276 160.507 98.8747 160.427 88.4866C160.348 78.0985 167.656 69.6208 176.75 69.5517C185.846 69.4818 193.283 77.8464 193.363 88.2338Z" fill="#FFA78F"/>
<path d="M162.207 86.638C162.207 86.638 163.08 84.1454 163.761 82.908L167.619 82.3495C167.619 82.3495 167.593 83.921 170.066 84.0031C172.539 84.086 183.706 82.9942 188.735 81.5398C188.735 81.5398 191.149 83.8584 191.456 85.6437C191.456 85.6437 193.515 82.0113 191.449 79.5871C189.384 77.1628 184.606 72.2793 183.184 72.2809C181.762 72.2825 168.454 72.2955 168.454 72.2955C168.454 72.2955 163.578 78.3261 163.124 78.44C162.669 78.5546 162.198 79.8301 162.198 79.8301L160.589 85.6746L162.207 86.638Z" fill="#F9867D"/>
<path d="M161.713 95.5359C161.713 95.5359 161.038 87.0802 164.1 79.9772L163.449 70.6525C163.449 70.6525 152.942 76.0847 161.713 95.5359Z" fill="#072D38"/>
<path d="M192.147 95.505C192.147 95.505 192.804 87.0477 189.728 79.9513C189.728 79.9513 181.484 82.0089 173.66 82.4975C165.802 82.9861 171.373 80.2821 172.039 79.9529C171.482 80.1561 166.585 81.83 162.184 81.5479H162.176C162.125 81.5479 162.066 81.5479 162.015 81.5398C161.324 81.4902 160.658 81.3894 160.017 81.2301C159.697 81.1463 159.41 81.0536 159.148 80.9358C159.14 80.9358 159.14 80.9358 159.14 80.9358C158.456 80.6333 157.866 80.2374 157.377 79.8163C155.689 78.3765 155.071 76.5726 155.071 76.5726C156.629 74.8678 157.909 73.1719 158.65 72.1427C158.667 72.1175 158.683 72.0923 158.7 72.0671C158.969 71.6955 159.155 71.4175 159.255 71.2655C159.315 71.1899 159.34 71.1476 159.34 71.1476C160.763 69.207 163.104 66.7592 166.77 64.7991C173.959 60.9554 187.114 62.9569 190.36 70.6265C190.36 70.6249 200.879 76.036 192.147 95.505Z" fill="#072D38"/>
<path d="M190.359 70.6249C190.359 70.6249 183.481 64.4512 176.162 64.5601C168.844 64.6691 163.005 69.0591 160.58 72.3077C158.155 75.5483 156.462 77.1856 156.462 77.1856C156.48 78.0538 157.375 79.8155 157.375 79.8155C155.687 78.3758 155.069 76.5718 155.069 76.5718C156.628 74.867 157.907 73.1711 158.648 72.1419C158.665 72.1167 158.681 72.0915 158.698 72.0663C158.968 71.6948 159.153 71.4167 159.254 71.2647C159.313 71.1891 159.338 71.1468 159.338 71.1468C160.761 69.2063 163.102 66.7584 166.769 64.7983C173.958 60.9538 187.113 62.9553 190.359 70.6249Z" fill="#0F5C60"/>
<path d="M175.89 90.7247C175.89 90.7247 175.12 94.0652 176.146 96.3074" stroke="#C94357" stroke-miterlimit="10" stroke-linecap="round" stroke-linejoin="round"/>
<path d="M175.884 99.1529C175.884 99.1529 180.537 99.7716 182.544 96.2238" stroke="#C94357" stroke-miterlimit="10" stroke-linecap="round" stroke-linejoin="round"/>
<path d="M180.323 85.1722C182.07 84.7641 184.968 85.5917 186.453 87.3298" stroke="#072D38" stroke-miterlimit="10" stroke-linecap="round" stroke-linejoin="round"/>
<path d="M180.39 90.4395C181.631 91.0638 183.122 91.1719 184.44 90.7337" stroke="#072D38" stroke-miterlimit="10" stroke-linecap="round" stroke-linejoin="round"/>
<path d="M172.13 85.1803C170.383 84.7755 167.487 85.6096 166.005 87.3501" stroke="#072D38" stroke-miterlimit="10" stroke-linecap="round" stroke-linejoin="round"/>
<path d="M172.074 90.4476C170.834 91.0744 169.343 91.1858 168.024 90.7501" stroke="#072D38" stroke-miterlimit="10" stroke-linecap="round" stroke-linejoin="round"/>
<path d="M203.667 178.486C204.782 180.129 197.215 184.58 176.686 186.869H176.669C176.399 186.836 176.13 186.81 175.86 186.777C175.573 186.744 175.295 186.71 175.017 186.685C155.731 184.377 148.593 180.144 149.662 178.541C150.31 177.571 150.605 176.348 150.73 175.505C150.73 175.395 150.721 175.294 150.721 175.184C150.652 173.236 150.505 171.036 150.31 168.667C149.405 157.395 147.467 142.287 147.65 132.599C147.906 119.024 149.261 116.299 155.651 114.893C158.651 114.233 163.449 113.916 167.698 113.751C167.698 113.751 169.931 120.756 176.576 120.748C183.22 120.742 185.439 113.733 185.439 113.733C186.459 113.773 187.496 113.815 188.542 113.873C191.881 114.055 195.203 114.355 197.489 114.85C203.881 116.244 205.241 118.966 205.525 132.54C205.561 134.496 204.094 151.967 203.197 164.464C202.872 168.984 202.623 172.854 202.541 175.105C202.645 175.94 202.924 177.382 203.667 178.486Z" fill="#F2F9F9"/>
<path d="M149.668 162.343C148.613 151.698 147.871 141.021 147.443 130.331" stroke="#C7D7E2" stroke-miterlimit="10" stroke-linecap="round" stroke-linejoin="round"/>
<path d="M144.044 141.164C145.258 143.109 146.64 144.95 148.168 146.658" stroke="#C7D7E2" stroke-miterlimit="10" stroke-linecap="round" stroke-linejoin="round"/>
<path d="M203.638 155.96C203.638 146.971 203.995 137.79 203.995 128.801" stroke="#C7D7E2" stroke-miterlimit="10" stroke-linecap="round" stroke-linejoin="round"/>
<path d="M203.745 145.939C205.376 144.532 206.79 142.876 207.926 141.046" stroke="#C7D7E2" stroke-miterlimit="10" stroke-linecap="round" stroke-linejoin="round"/>
<path d="M176.685 186.868H176.668C156.135 184.621 148.559 180.186 149.662 178.54C150.31 177.57 150.604 176.347 150.729 175.504C150.729 175.394 150.72 175.293 150.72 175.183C153.776 177.921 160.761 181.598 175.852 180.403C199.147 178.557 203.196 164.464 203.196 164.464C202.872 168.984 202.623 172.854 202.541 175.105C202.642 175.94 202.923 177.382 203.666 178.486C204.781 180.129 197.214 184.58 176.685 186.868Z" fill="#D3E3EA"/>
<path d="M174.428 123.931C174.428 123.931 173.091 136.693 178.1 142.6C183.107 148.506 187.425 153.777 187.324 167.061L194.406 170.605C194.406 170.605 193.67 152.693 186.16 146.026C178.65 139.359 177.679 134.358 177.194 132.767C176.709 131.176 176.252 124.924 176.252 124.924L174.428 123.931Z" fill="#C1D7E5"/>
<path d="M175.793 123.927L175.857 186.776C175.57 186.743 175.292 186.71 175.014 186.685L174.95 123.928L175.793 123.927Z" fill="#AEC6D6"/>
<path d="M178.996 144.688C178.997 145.182 178.596 145.584 178.102 145.584C177.608 145.585 177.206 145.184 177.206 144.69C177.205 144.195 177.606 143.794 178.1 143.794C178.594 143.793 178.996 144.194 178.996 144.688Z" fill="#AEC6D6"/>
<path d="M179.006 155.187C179.006 155.681 178.606 156.083 178.111 156.083C177.617 156.083 177.215 155.683 177.215 155.188C177.215 154.694 177.615 154.292 178.11 154.292C178.604 154.292 179.006 154.692 179.006 155.187Z" fill="#AEC6D6"/>
<path d="M179.017 165.386C179.018 165.881 178.617 166.282 178.122 166.282C177.628 166.283 177.227 165.882 177.227 165.388C177.226 164.894 177.627 164.492 178.121 164.492C178.615 164.492 179.016 164.892 179.017 165.386Z" fill="#AEC6D6"/>
<path d="M179.028 175.586C179.029 176.08 178.628 176.482 178.134 176.482C177.639 176.483 177.238 176.082 177.238 175.588C177.237 175.093 177.638 174.692 178.132 174.692C178.626 174.691 179.027 175.092 179.028 175.586Z" fill="#AEC6D6"/>
<path d="M196.744 156.053C194.919 149.802 183.941 143.276 180.98 138.334C178.842 134.765 178.095 128.84 177.845 125.822L181.099 122.561L176.569 120.766L172.043 122.571L175.384 125.904C175.111 142.236 183.446 144.951 186.734 151.402C190.151 158.106 190.047 167.202 190.047 167.202L195.281 171.289L198.459 166.056C198.459 166.056 198.57 162.304 196.744 156.053Z" fill="#0D939C"/>
<path d="M185.44 113.734C185.44 113.734 182.869 119.015 176.573 120.75C176.573 120.75 179.237 123.841 184.009 123.921C188.782 124.001 187.271 113.732 187.271 113.732L185.44 113.734Z" fill="#C7D7E2"/>
<path d="M167.688 113.752C167.688 113.752 170.271 119.027 176.57 120.75C176.57 120.75 173.912 123.846 169.14 123.936C164.368 124.026 165.858 113.755 165.858 113.755L167.688 113.752Z" fill="#C7D7E2"/>
</svg>
