<svg width="331" height="328" viewBox="0 0 331 328" fill="none" xmlns="http://www.w3.org/2000/svg">
<path d="M331 61.3477V265.027C331 278.894 327.681 290.838 322.173 300.328C311.853 318.149 298.091 323.515 281.04 325.708C258.099 328.803 230.261 326.342 197.053 323.127C181.321 321.591 178.355 321.184 167.82 320.9C160.002 320.734 148.189 320.709 129.834 321.356C99.012 322.584 89.3473 323.225 74.6121 323.734C73.8672 323.766 73.12 323.804 72.3711 323.844C58.3867 324.593 27.7496 327.135 13.3198 307.558C5.81872 297.381 0 286.285 0 265.027V61.3477C0 4.77517 53.7873 2.54797 76.1855 4.47126C85.391 5.24631 89.0411 5.87842 99.0299 6.9067C113.757 8.47559 126.662 8.96666 143.307 6.7146C162.535 4.09997 184.454 2.4018 203.741 1.29931H203.987C235.531 -0.44669 268.821 -0.699726 290.383 2.21027C310.333 4.88849 324.276 22.6884 329.082 43.6598C330.336 49.1761 331 55.0974 331 61.3477Z" fill="#F3ECE6"/>
<g opacity="0.6">
<path d="M208.967 194.225C208.967 194.225 223.328 80.5135 253.161 85.6832C282.994 90.853 227.134 159.686 223.972 192.924L208.967 194.225Z" fill="#B2C9C6"/>
</g>
<path d="M209.382 221.238C209.382 221.238 258.46 93.8004 297.787 108.259C337.114 122.718 243.108 186.453 230.175 223.999L209.382 221.238Z" fill="#CFD3A3"/>
<path d="M220.999 222.888C229.472 196.791 247.325 171.656 260.81 155.166C275.429 137.289 288.198 125.446 288.325 125.329L287.612 124.51C287.484 124.628 274.659 136.523 259.992 154.458C246.448 171.022 228.513 196.279 219.986 222.539L220.999 222.888Z" fill="#C4C695"/>
<path d="M311.576 213.387C300.086 220.569 308.644 239.183 293.287 240.627C280.297 241.84 278.908 241.062 275.956 246.084C274.944 247.806 274.202 249.679 273.698 251.623C273.093 253.952 271.634 257.586 268.219 259.535C247.358 271.443 205.647 248.439 222.562 221.573C223.784 219.633 226.045 218.249 228.595 216.855C242.433 209.306 249.309 214.595 254.875 192.759C260.444 170.916 284.622 190.794 294.129 186.412C303.637 182.029 311.264 175.927 322.498 183.907C333.735 191.894 323.07 206.213 311.576 213.387Z" fill="#B2C9C6"/>
<g opacity="0.5">
<path d="M237.89 243.649L237.185 243.101C237.419 242.781 261.39 210.764 325.276 186.318L325.584 187.172C261.939 211.526 238.124 243.33 237.89 243.649Z" fill="#74A1BD"/>
<path d="M269.371 203.805C258.235 198.956 254.644 193.241 254.496 193L255.244 192.515C255.279 192.571 258.864 198.242 269.716 202.967L269.371 203.805Z" fill="#74A1BD"/>
<path d="M273.957 212.562C270.118 209.081 268.25 202.762 268.555 194.288C268.784 187.942 270.158 182.541 270.172 182.487L271.027 182.72C270.972 182.931 265.714 203.875 274.542 211.88L273.957 212.562Z" fill="#74A1BD"/>
<path d="M290.404 205.04C289.101 204.529 288.364 204.157 288.331 204.14L288.727 203.326C288.881 203.406 304.398 211.217 321.224 204.646L321.538 205.496C307.979 210.792 295.259 206.946 290.404 205.04Z" fill="#74A1BD"/>
<path d="M305.433 221.962C300.057 218.885 297.456 214.827 296.22 211.963C294.875 208.847 294.811 206.48 294.808 206.38L295.693 206.36C295.695 206.451 296.02 215.534 305.863 221.167L305.433 221.962Z" fill="#74A1BD"/>
</g>
<path d="M272.137 89.3317C273.453 85.3496 275.074 84.5952 276.59 85.126C278.106 85.6565 278.945 87.2713 277.629 91.2536C275.232 98.5076 271.328 101.053 271.328 101.053C271.328 101.053 269.706 96.6913 272.137 89.3317Z" fill="#B2C9C6"/>
<path d="M298.986 170.383C302.923 168.491 304.678 169.215 305.399 170.803C306.119 172.391 305.532 174.241 301.596 176.134C294.425 179.58 289.654 178.371 289.654 178.371C289.654 178.371 291.711 173.88 298.986 170.383Z" fill="#B2C9C6"/>
<path d="M284.867 167.208C286.203 163.233 287.827 162.487 289.341 163.026C290.855 163.565 291.685 165.184 290.349 169.159C287.916 176.401 284 178.925 284 178.925C284 178.925 282.399 174.555 284.867 167.208Z" fill="#B2C9C6"/>
<path d="M163.73 274.157C163.73 274.157 106.612 154.855 75.7408 172.022C44.8695 189.19 131.225 243.238 146.783 278.51L163.73 274.157Z" fill="#B2C9C6"/>
<path d="M153.876 278.62C153.876 278.62 73.9186 174.403 41.3294 199.07C8.74025 223.738 113.185 255.989 135.326 287.129L153.876 278.62Z" fill="#9BBCB6"/>
<path d="M143.54 283.474C128.629 261.682 105.274 243.464 88.3086 232.02C69.9148 219.612 54.8673 212.276 54.7174 212.203L55.1584 211.24C55.3089 211.313 70.4221 218.681 88.8755 231.129C105.917 242.625 129.381 260.931 144.385 282.861L143.54 283.474Z" fill="#74A1BD"/>
<path d="M186.653 322.115C185.473 321.988 184.293 321.887 183.113 321.761C178.613 321.331 173.45 321.052 167.82 320.9C163.05 320.799 157.961 320.774 152.65 320.825C152.035 320.825 151.396 320.824 150.781 320.85C146.749 320.9 142.618 320.976 138.414 321.103C135.586 321.179 132.71 321.254 129.833 321.356C126.662 321.482 123.515 321.609 120.318 321.71C120.22 321.735 120.097 321.735 119.999 321.735C118.72 321.786 117.442 321.862 116.164 321.912C115.278 321.938 114.368 321.988 113.459 322.014C107.534 322.292 101.682 322.57 96.0025 322.823C88.43 323.178 81.2015 323.507 74.612 323.734C73.3339 320.116 72.3258 316.118 70.7033 312.499V312.474C70.6046 312.297 70.5308 312.145 70.4324 311.942V311.917C68.6376 308.096 66.0804 304.705 61.7532 302.63C57.1558 300.429 52.5579 297.468 48.6488 294.052C48.3292 293.773 48.0094 293.495 47.69 293.191C40.0191 286.131 35.4461 277.376 39.7733 269.759C39.8716 269.582 39.9944 269.404 40.0929 269.228C40.8793 267.962 41.9122 266.748 43.2154 265.584C56.8362 253.437 67.7033 260.295 80.8079 264.597C85.4305 266.14 92.0442 263.407 99.1004 260.497C103.108 258.827 107.239 257.081 111.247 256.018C111.418 255.993 111.566 255.942 111.713 255.917C113.336 255.487 114.935 255.209 116.508 255.082C116.999 255.031 117.467 255.006 117.934 255.006H118.303C124.449 255.006 129.834 257.941 133.227 267.026C133.325 267.279 133.423 267.532 133.522 267.76C133.915 268.797 134.308 269.809 134.702 270.746C135.12 271.707 135.513 272.618 135.907 273.479C135.907 273.479 135.906 273.504 135.931 273.529C139.3 280.817 142.545 284.663 146.159 286.941C152.502 290.939 159.977 290.155 171.139 294.684C174.704 296.127 177.851 297.62 179.744 299.973C185.621 307.362 187.538 314.954 186.653 322.115Z" fill="#CFD3A3"/>
<path d="M152.649 320.825C152.034 320.825 151.395 320.825 150.78 320.85C139.52 312.17 119.949 299.29 90.6167 287.194C90.1744 286.992 89.7319 286.815 89.2893 286.638C75.0536 280.817 58.5561 275.2 39.6243 270.341L39.772 269.759L39.9194 269.177C39.9686 269.202 40.0424 269.202 40.0917 269.228C68.9314 276.667 92.1903 285.828 110.384 294.786C110.728 294.963 111.097 295.14 111.442 295.317H111.466C130.742 304.908 144.24 314.22 152.649 320.825Z" fill="#C4C695"/>
<path d="M115.773 283.707C129.699 275.667 133.6 267.625 133.759 267.287L132.708 266.762C132.671 266.842 128.772 274.824 115.201 282.659L115.773 283.707Z" fill="#C4C695"/>
<path d="M111.003 295.89C115.547 290.744 117.1 282.169 115.494 271.094C114.292 262.8 111.721 255.919 111.695 255.85L110.607 256.284C110.708 256.552 120.587 283.249 110.138 295.082L111.003 295.89Z" fill="#C4C695"/>
<path d="M88.3443 288.496C89.9819 287.628 90.8955 287.03 90.937 287.002L90.302 285.994C90.1108 286.122 70.8568 298.71 47.8394 292.618L47.5491 293.782C66.0961 298.69 82.243 291.728 88.3443 288.496Z" fill="#C4C695"/>
<path d="M71.0282 312.966C77.6459 308.119 80.4828 302.4 81.6977 298.456C83.0199 294.164 82.7678 291.047 82.7571 290.917L81.5937 291.023C81.6038 291.143 82.4677 303.113 70.3508 311.987L71.0282 312.966Z" fill="#C4C695"/>
<path d="M34.2011 242.603C28.5666 240.983 27.3909 238.658 28.008 236.385C28.6251 234.113 30.8014 232.752 36.4355 234.372C46.6991 237.324 50.5425 242.866 50.5425 242.866C50.5425 242.866 44.6141 245.598 34.2011 242.603Z" fill="#B2C9C6"/>
<path d="M128.763 161.649C128.763 161.649 123.276 195.382 134.855 215.074C140.931 225.406 143.869 223.252 146.465 227.339C152.847 237.386 150.228 256.579 153.787 264.947C158.63 276.334 165.392 275.189 165.392 275.189L253.661 251.337C253.661 251.337 249.8 242.451 244.806 219.941C242.98 211.713 239.044 202.084 243.625 189.47C250.013 171.881 243.6 149.306 239.602 128.054C237.727 118.089 232.998 99.555 230.33 93.0017C227.518 86.0966 226.375 59.1609 216.588 59.6611C199.293 60.5449 208.142 84.3637 206.993 96.9193C205.845 109.475 128.763 161.649 128.763 161.649Z" fill="#F7B686"/>
<path d="M189.6 223.598C189.335 223.63 189.06 223.534 188.867 223.316C188.698 223.124 184.708 218.527 182.723 210.783C181.558 206.236 181.335 201.547 182.06 196.847C182.963 190.994 185.346 185.116 189.144 179.375C189.409 178.974 189.941 178.87 190.331 179.143C190.721 179.416 190.821 179.963 190.556 180.365C186.901 185.89 184.611 191.528 183.748 197.122C183.06 201.58 183.271 206.025 184.376 210.334C186.255 217.669 190.095 222.091 190.134 222.135C190.45 222.495 190.424 223.051 190.074 223.377C189.937 223.504 189.771 223.578 189.6 223.598Z" fill="#EA9F75"/>
<path d="M225.067 190.195L213.831 64.5875C213.65 62.962 213.176 61.592 212.5 60.454C209.928 56.1348 204.445 55.0202 200.497 55.4845L154.763 61.0114L153.95 61.1275L138.337 63.0085L133.915 63.5427C128.906 64.1465 125.318 68.8141 125.905 73.9693L126.469 80.2855L126.785 83.6761L127.056 86.718L127.574 92.5003L129.221 110.706L129.763 116.581V116.605L130.169 121.063L130.417 123.757V124.012L130.982 130.143L131.997 141.406L132.516 147.118V147.141L132.583 147.815V147.954L133.509 158.195L133.531 158.381L133.983 163.281L134.434 168.32L134.501 169.017V169.04L137.592 203.385C138.179 208.517 143.075 211.513 148.084 210.909L181.838 205.87H181.86L183.53 205.614L217.058 200.622C222.066 200.018 225.654 195.35 225.067 190.195Z" fill="#6F4975"/>
<path d="M200.802 57.8582L134.15 65.9098C130.427 66.3595 127.753 69.7444 128.178 73.4701L140.312 197.052C141.208 205.502 145.583 204.646 149.306 204.196L216.255 194.174C219.979 193.724 222.587 188.95 222.162 185.223L211.124 64.256C210.699 60.53 204.526 57.4083 200.802 57.8582Z" fill="#96B4E0"/>
<path d="M203.154 155.672L151.96 161.856C149.1 162.202 147.046 164.802 147.372 167.663L148.798 179.159C149.487 185.649 152.847 184.991 155.707 184.646L207.129 176.948C209.99 176.602 211.993 172.935 211.667 170.073L211.083 160.586C210.909 155.639 206.015 155.326 203.154 155.672Z" fill="white"/>
<path d="M201.559 157.753L154.132 163.483C151.483 163.803 149.557 166.005 149.83 168.401L151.034 178.028C151.606 183.464 154.722 182.876 157.371 182.556L205.024 175.555C207.674 175.235 209.564 172.138 209.29 169.741L208.845 161.791C208.733 157.643 204.209 157.433 201.559 157.753Z" fill="#395861"/>
<path d="M164.63 172.171C164.588 171.806 164.267 171.546 163.913 171.59L161.387 171.899L163.175 169.858C163.414 169.585 163.392 169.165 163.128 168.92C162.863 168.674 162.455 168.696 162.216 168.968L160.234 171.231L160.039 168.108C160.016 167.742 159.71 167.464 159.354 167.488C158.998 167.511 158.728 167.827 158.751 168.193L158.95 171.392L156.233 169.068C155.959 168.834 155.552 168.872 155.324 169.155C155.096 169.437 155.134 169.856 155.408 170.09L158.006 172.312L154.997 172.681C154.643 172.724 154.39 173.054 154.432 173.419C154.471 173.756 154.75 174.005 155.072 174.005C155.098 174.005 155.124 174.003 155.15 174L158.128 173.636L156.309 175.712C156.071 175.984 156.092 176.404 156.357 176.65C156.48 176.764 156.635 176.821 156.789 176.821C156.965 176.821 157.141 176.747 157.268 176.601L159.141 174.463L159.308 177.129C159.33 177.481 159.613 177.751 159.951 177.751C159.965 177.751 159.979 177.751 159.993 177.75C160.349 177.726 160.619 177.41 160.596 177.044L160.43 174.386L162.556 176.204C162.677 176.307 162.823 176.357 162.969 176.357C163.154 176.357 163.338 176.276 163.466 176.118C163.693 175.835 163.656 175.417 163.382 175.182L161.142 173.267L164.066 172.909C164.42 172.866 164.672 172.535 164.63 172.171Z" fill="white"/>
<path d="M178.017 170.258C177.975 169.894 177.654 169.633 177.3 169.677L174.774 169.986L176.562 167.945C176.8 167.673 176.779 167.253 176.514 167.007C176.25 166.761 175.841 166.783 175.603 167.056L173.621 169.319L173.426 166.196C173.403 165.83 173.097 165.552 172.74 165.575C172.385 165.599 172.115 165.915 172.137 166.281L172.337 169.479L169.62 167.156C169.346 166.921 168.939 166.96 168.711 167.242C168.483 167.524 168.521 167.943 168.795 168.178L171.393 170.4L168.384 170.768C168.03 170.812 167.777 171.142 167.819 171.506C167.858 171.844 168.137 172.092 168.459 172.092C168.485 172.092 168.51 172.091 168.536 172.088L171.514 171.723L169.696 173.799C169.457 174.072 169.479 174.492 169.743 174.738C169.867 174.852 170.021 174.908 170.175 174.908C170.352 174.908 170.527 174.834 170.655 174.689L172.528 172.55L172.694 175.217C172.716 175.568 173 175.839 173.338 175.839C173.352 175.839 173.366 175.838 173.38 175.837C173.736 175.814 174.006 175.498 173.983 175.132L173.817 172.473L175.943 174.292C176.064 174.395 176.21 174.445 176.355 174.445C176.54 174.445 176.724 174.363 176.852 174.205C177.08 173.923 177.042 173.504 176.768 173.27L174.529 171.354L177.452 170.997C177.806 170.953 178.059 170.623 178.017 170.258Z" fill="white"/>
<path d="M192.122 168.284C192.08 167.92 191.759 167.659 191.405 167.703L188.879 168.012L190.667 165.971C190.905 165.699 190.884 165.279 190.62 165.033C190.355 164.787 189.947 164.809 189.708 165.082L187.726 167.345L187.531 164.222C187.508 163.855 187.202 163.578 186.845 163.601C186.49 163.625 186.22 163.941 186.243 164.307L186.442 167.505L183.725 165.182C183.451 164.947 183.044 164.986 182.816 165.268C182.588 165.55 182.626 165.969 182.9 166.204L185.498 168.426L182.489 168.794C182.135 168.837 181.882 169.168 181.924 169.532C181.963 169.87 182.242 170.118 182.564 170.118C182.59 170.118 182.615 170.117 182.641 170.113L185.62 169.749L183.801 171.825C183.563 172.098 183.584 172.518 183.848 172.763C183.972 172.878 184.126 172.934 184.28 172.934C184.457 172.934 184.633 172.86 184.76 172.715L186.633 170.576L186.799 173.243C186.821 173.594 187.105 173.864 187.443 173.864C187.457 173.864 187.471 173.864 187.485 173.863C187.841 173.84 188.11 173.524 188.088 173.158L187.922 170.499L190.048 172.317C190.169 172.421 190.315 172.471 190.46 172.471C190.646 172.471 190.83 172.389 190.957 172.231C191.185 171.949 191.147 171.53 190.873 171.295L188.634 169.38L191.557 169.022C191.912 168.979 192.165 168.649 192.122 168.284Z" fill="white"/>
<path d="M206.256 166.174C206.214 165.809 205.893 165.549 205.538 165.593L203.013 165.902L204.8 163.861C205.039 163.588 205.018 163.168 204.753 162.923C204.488 162.677 204.08 162.699 203.841 162.971L201.859 165.234L201.664 162.111C201.641 161.745 201.335 161.467 200.979 161.491C200.623 161.514 200.353 161.83 200.376 162.196L200.575 165.395L197.858 163.071C197.584 162.837 197.177 162.875 196.949 163.158C196.722 163.44 196.759 163.859 197.033 164.093L199.632 166.315L196.622 166.684C196.268 166.727 196.015 167.058 196.058 167.422C196.097 167.759 196.375 168.008 196.698 168.008C196.723 168.008 196.749 168.006 196.775 168.003L199.753 167.639L197.935 169.715C197.696 169.987 197.717 170.407 197.982 170.653C198.105 170.767 198.26 170.824 198.414 170.824C198.59 170.824 198.766 170.75 198.894 170.604L200.767 168.466L200.933 171.132C200.955 171.484 201.239 171.754 201.576 171.754C201.59 171.754 201.604 171.754 201.618 171.753C201.974 171.729 202.244 171.413 202.221 171.047L202.056 168.389L204.182 170.207C204.302 170.31 204.448 170.36 204.594 170.36C204.779 170.36 204.963 170.279 205.091 170.121C205.319 169.838 205.281 169.42 205.007 169.185L202.768 167.27L205.691 166.912C206.045 166.869 206.298 166.538 206.256 166.174Z" fill="white"/>
<path d="M200.776 120.356C200.158 123.386 199.009 126.168 197.452 128.654C195.528 131.731 192.978 134.357 190.034 136.446C189.432 136.873 188.814 137.278 188.181 137.659C181.827 141.492 174.009 142.99 166.725 141.416C165 141.043 163.377 140.491 161.86 139.778C159.948 138.882 158.208 137.735 156.647 136.383C155.765 135.616 154.938 134.784 154.174 133.895L154.174 133.893C148.386 127.164 146.038 117.124 148.042 107.297C151.152 92.0538 162.483 80.958 179.789 85.3404C194.102 88.9647 203.885 105.112 200.776 120.356Z" fill="white"/>
<path d="M156.559 131.203C154.633 129.362 153.136 127.214 152.045 124.877C150.693 121.986 149.963 118.804 149.808 115.551C149.777 114.886 149.769 114.218 149.786 113.549C149.946 106.83 152.494 100.002 157.037 94.9674C158.114 93.7749 159.274 92.7428 160.501 91.8664C162.046 90.7611 163.695 89.9025 165.411 89.2772C166.382 88.9243 167.375 88.6453 168.381 88.4407L168.382 88.4414C175.995 86.889 184.425 89.5249 190.67 95.4953C200.358 104.757 203.185 118.642 191.92 130.317C182.603 139.973 166.247 140.465 156.559 131.203Z" fill="#395861"/>
<path d="M184.13 113.509L164.189 115.745L163.238 106.767C162.959 104.129 163.695 101.538 165.309 99.4692C166.924 97.4009 169.225 96.1035 171.788 95.8161L172.54 95.7318C175.103 95.4444 177.621 96.2014 179.63 97.8633C181.64 99.5252 182.901 101.893 183.18 104.531L184.13 113.509ZM166.752 112.461L180.94 110.87L180.303 104.854C179.899 101.041 176.557 98.2773 172.853 98.6927L172.101 98.7769C169.62 99.223 167.619 100.747 166.669 102.844C166.184 103.917 165.978 105.154 166.115 106.444L166.752 112.461Z" fill="white"/>
<path d="M182.458 128.145L168.884 129.667C166.357 129.951 164.084 128.071 163.809 125.47L162.138 109.683C162.051 108.863 162.627 108.125 163.423 108.036L183.265 105.811C184.062 105.722 184.778 106.314 184.865 107.134L186.536 122.921C186.812 125.523 184.986 127.862 182.458 128.145Z" fill="white"/>
<path d="M175.422 115.148C175.35 114.47 174.758 113.981 174.099 114.054C173.441 114.128 172.965 114.738 173.037 115.415C173.073 115.752 173.237 116.043 173.474 116.24L173.978 120.999C174.029 121.48 174.449 121.828 174.917 121.776C175.385 121.723 175.722 121.29 175.671 120.809L175.168 116.05C175.358 115.804 175.457 115.485 175.422 115.148Z" fill="#395861"/>
<path d="M109.142 137.663L128.4 146.086C133.197 149.465 139.749 148.204 143.034 143.267C146.319 138.329 145.094 131.587 140.296 128.204L127.862 119.441C119.325 113.606 111.719 111.01 106.435 118.964C98.9747 130.193 104.504 134.393 109.142 137.663Z" fill="#F7B686"/>
<path d="M281.039 325.708C282.706 325.494 284.34 325.248 285.944 324.965C273.988 290.45 253.514 231.212 253.135 230.113C252.346 227.883 249.954 226.56 246.254 226.165H246.231C238.289 225.329 224.278 228.812 206.995 236.963C185.56 247.088 163.878 243.558 150.837 243.024H150.814C148.399 242.908 146.279 242.931 144.519 243.14C140.473 243.624 137.482 263.875 135.563 285.734C135.443 287.099 135.091 305.864 134.789 321.192C150.351 320.715 160.728 320.75 167.818 320.9C178.353 321.185 181.32 321.591 197.051 323.127C230.259 326.342 258.097 328.803 281.039 325.708Z" fill="#68A1BF"/>
<path d="M136.232 143.118C136.124 143.118 136.018 143.107 135.913 143.085C135.554 143.018 129.805 141.929 127.137 139.967C126.037 139.159 125.931 137.464 126.84 135.194C127.504 133.535 128.656 131.7 129.92 130.286C130.958 129.126 132.479 127.792 133.833 128.018C136.913 128.534 141.514 131.415 141.432 134.58C141.369 137.005 139.437 141.081 137.674 142.511C137.176 142.915 136.692 143.118 136.232 143.118ZM133.509 129.359C132.261 129.359 129.382 132.433 128.068 135.715C127.447 137.267 127.386 138.47 127.909 138.854C130.362 140.656 136.098 141.729 136.156 141.74L136.177 141.744C136.322 141.776 136.574 141.661 136.851 141.437C138.318 140.247 140.051 136.575 140.103 134.543C140.16 132.336 136.161 129.794 133.619 129.368C133.584 129.362 133.547 129.359 133.509 129.359Z" fill="#EA9F75"/>
<path d="M110.305 110.977L128.191 122.153C132.468 126.206 139.128 125.923 143.067 121.522C147.006 117.12 146.732 110.266 142.454 106.211L131.369 95.7039C123.732 88.6698 116.566 84.9791 110.229 92.0713C101.282 102.084 106.169 107.057 110.305 110.977Z" fill="#F7B686"/>
<path d="M136.591 120.388C136.399 120.388 136.216 120.356 136.04 120.291C135.693 120.172 130.157 118.246 127.789 115.911C126.813 114.949 126.945 113.256 128.16 111.144C129.048 109.6 130.443 107.954 131.892 106.741C133.08 105.746 134.772 104.649 136.08 105.073C137.547 105.549 139.27 106.659 140.577 107.97C142.178 109.575 142.927 111.25 142.687 112.689C142.287 115.079 139.807 118.829 137.863 119.984C137.409 120.253 136.983 120.388 136.591 120.388ZM135.443 106.344C134.121 106.344 131.002 108.888 129.303 111.841C128.473 113.285 128.245 114.466 128.709 114.924C130.885 117.069 136.413 118.977 136.469 118.996L136.489 119.004C136.628 119.056 136.894 118.98 137.199 118.799C138.816 117.838 141.042 114.46 141.377 112.457C141.741 110.28 138.137 107.174 135.681 106.378C135.61 106.355 135.53 106.344 135.443 106.344Z" fill="#EA9F75"/>
<path d="M118.132 164.287L135.24 168.527C139.674 170.646 144.939 168.665 146.999 164.102C149.06 159.538 147.135 154.12 142.701 151.998L131.207 146.502C123.34 142.879 116.682 141.811 113.369 149.162C108.693 159.54 113.844 162.236 118.132 164.287Z" fill="#F7B686"/>
<path d="M141.116 165.076C141.099 165.076 141.082 165.076 141.065 165.075C140.743 165.071 135.816 164.985 133.322 163.73C132.702 163.418 131.756 162.478 132.376 159.691C133.014 156.829 135.254 152.665 137.313 152.657C137.322 152.657 137.33 152.657 137.338 152.657C140 152.657 144.24 154.424 144.605 157.11C144.882 159.155 143.815 162.857 142.529 164.313C142.081 164.82 141.606 165.076 141.116 165.076ZM137.338 154.024C137.331 154.024 137.325 154.024 137.319 154.024C136.361 154.028 134.313 157.118 133.672 159.997C133.382 161.3 133.473 162.283 133.905 162.501C136.161 163.635 141.041 163.707 141.089 163.707L141.111 163.708C141.161 163.709 141.321 163.647 141.546 163.393C142.566 162.238 143.511 158.935 143.289 157.3C143.047 155.516 139.47 154.024 137.338 154.024Z" fill="#EA9F75"/>
<path d="M135.096 125.779C127.775 125.779 114.926 114.793 114.349 114.296C114.068 114.054 114.03 113.623 114.266 113.333C114.501 113.043 114.921 113.005 115.202 113.247C115.239 113.279 118.927 116.443 123.378 119.377C129.156 123.185 133.568 124.889 136.139 124.304C136.497 124.222 136.852 124.455 136.931 124.823C137.01 125.192 136.784 125.557 136.426 125.639C136.008 125.734 135.563 125.779 135.096 125.779Z" fill="#EA9F75"/>
<path d="M134.004 148.776C129.551 148.776 122.421 144.271 122.088 144.059C121.776 143.86 121.68 143.439 121.873 143.118C122.065 142.797 122.475 142.697 122.787 142.896C125.166 144.41 131.994 148.149 134.989 147.288C135.343 147.186 135.709 147.399 135.808 147.763C135.907 148.126 135.701 148.504 135.347 148.606C134.939 148.722 134.487 148.776 134.004 148.776Z" fill="#EA9F75"/>
<path d="M222.543 80.8257C221.655 80.8259 220.55 80.6255 219.375 79.9372C218.566 79.4636 217.471 78.0913 217.3 71.6673C217.21 68.282 217.431 65.0335 217.433 65.0011C217.459 64.6243 217.777 64.3405 218.143 64.3676C218.509 64.3942 218.785 64.7215 218.759 65.0981C218.757 65.1302 218.54 68.3203 218.629 71.6394C218.787 77.5665 219.743 78.5792 220.032 78.7483C222.181 80.0061 223.979 79.2225 224.054 79.1883C224.389 79.0376 224.781 79.1927 224.93 79.5364C225.078 79.88 224.931 80.2817 224.598 80.4366C224.541 80.4634 223.738 80.8257 222.543 80.8257Z" fill="#EA9F75"/>
<path d="M154.913 228.879C154.863 228.885 154.812 228.886 154.76 228.883C147.199 228.404 142.614 225.616 140.1 223.361C137.329 220.877 136.384 218.49 136.345 218.389C136.17 217.938 136.384 217.427 136.823 217.247C137.26 217.068 137.756 217.286 137.931 217.736C137.94 217.757 138.803 219.895 141.301 222.105C143.612 224.151 147.842 226.682 154.865 227.128C155.336 227.157 155.694 227.574 155.665 228.059C155.639 228.491 155.316 228.83 154.913 228.879Z" fill="#EA9F75"/>
<path d="M138.03 170.243C138.009 170.243 137.988 170.243 137.967 170.243C133.482 170.223 117.195 164.478 116.504 164.234C116.157 164.111 115.973 163.722 116.092 163.365C116.211 163.008 116.589 162.818 116.936 162.94C117.103 163 133.705 168.856 137.973 168.875C137.992 168.875 138.011 168.876 138.029 168.876C142.092 168.876 144.04 166.892 144.059 166.872C144.317 166.603 144.738 166.6 144.999 166.866C145.26 167.131 145.263 167.563 145.005 167.833C144.911 167.931 142.641 170.243 138.03 170.243Z" fill="#EA9F75"/>
<path d="M153.686 267.791C153.443 265.655 155.107 263.146 157.139 262.642C159.79 261.983 162.043 263.602 162.287 265.738C162.572 268.239 160.704 270.865 158.193 271.168C156.118 271.419 153.93 269.928 153.686 267.791Z" fill="#41718C"/>
<path d="M157.958 167.859C154.093 166.126 149.893 169.257 147.873 173.126C139.867 188.465 123.451 224.963 118.734 224.256C115.654 223.794 117.136 219.288 110.247 218.109C104.679 217.155 103.1 222.244 100.127 222.18C95.8441 222.088 96.5139 220.531 92.7483 218.724C87.0486 215.987 83.7813 223.859 79.4538 221.551C75.1279 219.244 71.9637 212.57 64.4631 217.215C59.5085 220.281 56.19 227.747 47.5007 257.763C42.8967 273.666 38.7287 308.572 37.2775 322.202C50.2873 325.333 64.1837 324.282 72.3715 323.844C73.1207 323.803 73.8676 323.766 74.6125 323.734C89.191 323.23 98.8098 322.597 128.862 321.395C137.757 307.884 140.062 294.117 143.733 282.632C145.846 276.032 147.883 267.903 138.383 255.43C143.499 233.774 173.016 174.616 157.958 167.859Z" fill="#F7B686"/>
<path d="M135.987 273.941L134.785 273.892C135.041 267.283 137.679 255.77 137.791 255.284L138.961 255.569C138.934 255.687 136.239 267.452 135.987 273.941Z" fill="#EA9F75"/>
<path d="M156.131 182.081C155.052 182.081 153.668 181.791 152.191 181.118C150.326 180.269 149.288 179.157 149.344 178.067C149.478 175.459 152.976 171.473 153.166 171.258C153.402 170.975 153.821 170.873 154.448 170.946C156.296 171.162 160.069 173.089 160.452 173.855C160.901 174.753 159.59 179.951 158.088 181.512C157.742 181.872 157.046 182.081 156.131 182.081ZM154.09 171.455C153.826 171.455 153.638 171.506 153.556 171.605L153.55 171.613C153.514 171.653 149.983 175.66 149.858 178.095C149.815 178.94 150.765 179.889 152.399 180.633C154.551 181.613 157.037 181.85 157.721 181.139C159.182 179.62 160.268 174.647 159.993 174.098C159.776 173.663 156.341 171.702 154.39 171.474C154.282 171.461 154.181 171.455 154.09 171.455Z" fill="#F59A6D"/>
<path d="M122.899 221.216C122.773 221.216 122.644 221.177 122.532 221.097C122.239 220.888 122.166 220.474 122.37 220.173C122.436 220.074 129.075 210.163 136.708 194.11C136.864 193.78 137.251 193.644 137.571 193.805C137.892 193.967 138.024 194.365 137.867 194.694C130.188 210.845 123.497 220.831 123.431 220.93C123.305 221.116 123.104 221.216 122.899 221.216Z" fill="#EA9F75"/>
<path d="M138.382 256.095C138.325 256.095 138.267 256.087 138.209 256.071C137.865 255.972 137.664 255.606 137.759 255.253C140.157 246.368 157.671 197.691 157.848 197.201C157.972 196.857 158.343 196.681 158.678 196.809C159.012 196.936 159.183 197.318 159.059 197.662C158.882 198.152 141.387 246.777 139.004 255.608C138.924 255.902 138.665 256.095 138.382 256.095Z" fill="#EA9F75"/>
</svg>
