<svg width="331" height="328" viewBox="0 0 331 328" fill="none" xmlns="http://www.w3.org/2000/svg">
<path d="M331 61.3477V265.027C331 278.894 327.681 290.838 322.173 300.328C311.853 318.149 298.091 323.515 281.04 325.708C258.099 328.803 230.261 326.342 197.053 323.127C181.321 321.591 178.355 321.184 167.82 320.9C160.002 320.734 148.189 320.709 129.834 321.356C99.012 322.584 89.3473 323.225 74.6121 323.734C73.8672 323.766 73.12 323.804 72.3711 323.844C58.3867 324.593 27.7496 327.135 13.3198 307.558C5.81872 297.381 0 286.285 0 265.027V61.3477C0 4.77517 53.7873 2.54797 76.1855 4.47126C85.391 5.24631 89.0411 5.87842 99.0299 6.9067C113.757 8.47559 126.662 8.96666 143.307 6.7146C162.535 4.09997 184.454 2.4018 203.741 1.29931H203.987C235.531 -0.44669 268.821 -0.699726 290.383 2.21027C310.333 4.88849 324.276 22.6884 329.082 43.6598C330.336 49.1761 331 55.0974 331 61.3477Z" fill="#F9E9DC"/>
<g opacity="0.6">
<path d="M208.967 194.225C208.967 194.225 223.328 80.5135 253.161 85.6832C282.994 90.853 227.134 159.686 223.972 192.924L208.967 194.225Z" fill="#B2C9C6"/>
</g>
<path d="M209.382 221.238C209.382 221.238 258.46 93.8004 297.787 108.259C337.114 122.718 243.109 186.453 230.175 223.999L209.382 221.238Z" fill="#CFD3A3"/>
<path d="M220.999 222.888C229.472 196.791 247.325 171.656 260.81 155.166C275.429 137.289 288.198 125.446 288.325 125.329L287.612 124.51C287.484 124.628 274.659 136.523 259.992 154.458C246.448 171.022 228.513 196.279 219.986 222.539L220.999 222.888Z" fill="#C4C695"/>
<path d="M311.576 213.387C300.086 220.569 308.644 239.183 293.287 240.627C280.297 241.84 278.908 241.062 275.956 246.084C274.944 247.806 274.202 249.679 273.698 251.623C273.093 253.952 271.634 257.586 268.219 259.535C247.358 271.443 205.647 248.439 222.562 221.573C223.784 219.633 226.045 218.249 228.595 216.855C242.433 209.306 249.309 214.595 254.875 192.759C260.444 170.916 284.622 190.794 294.129 186.412C303.637 182.029 311.264 175.927 322.498 183.907C333.735 191.894 323.07 206.213 311.576 213.387Z" fill="#B2C9C6"/>
<g opacity="0.5">
<path d="M237.89 243.649L237.185 243.101C237.419 242.781 261.39 210.764 325.276 186.318L325.584 187.172C261.939 211.526 238.124 243.33 237.89 243.649Z" fill="#74A1BD"/>
<path d="M269.371 203.805C258.235 198.956 254.643 193.241 254.496 193L255.244 192.515C255.278 192.571 258.864 198.242 269.716 202.967L269.371 203.805Z" fill="#74A1BD"/>
<path d="M273.957 212.562C270.118 209.081 268.25 202.762 268.556 194.288C268.785 187.942 270.158 182.541 270.172 182.487L271.027 182.72C270.973 182.931 265.714 203.875 274.542 211.88L273.957 212.562Z" fill="#74A1BD"/>
<path d="M290.404 205.04C289.101 204.529 288.365 204.157 288.331 204.14L288.727 203.326C288.881 203.406 304.398 211.217 321.225 204.645L321.538 205.496C307.979 210.792 295.26 206.946 290.404 205.04Z" fill="#74A1BD"/>
<path d="M305.433 221.962C300.057 218.885 297.456 214.827 296.22 211.963C294.875 208.847 294.811 206.48 294.808 206.38L295.692 206.36C295.695 206.451 296.02 215.534 305.863 221.167L305.433 221.962Z" fill="#74A1BD"/>
</g>
<path d="M272.137 89.3317C273.453 85.3496 275.074 84.5952 276.59 85.126C278.106 85.6565 278.945 87.2713 277.629 91.2536C275.232 98.5076 271.328 101.053 271.328 101.053C271.328 101.053 269.706 96.6913 272.137 89.3317Z" fill="#B2C9C6"/>
<path d="M298.986 170.383C302.923 168.491 304.678 169.215 305.399 170.803C306.119 172.391 305.532 174.241 301.596 176.134C294.425 179.58 289.654 178.371 289.654 178.371C289.654 178.371 291.711 173.88 298.986 170.383Z" fill="#B2C9C6"/>
<path d="M284.867 167.208C286.203 163.233 287.827 162.487 289.341 163.026C290.855 163.565 291.685 165.184 290.349 169.159C287.916 176.401 284 178.925 284 178.925C284 178.925 282.399 174.555 284.867 167.208Z" fill="#B2C9C6"/>
<path d="M163.73 274.157C163.73 274.157 106.612 154.855 75.7409 172.022C44.8695 189.19 131.225 243.238 146.783 278.51L163.73 274.157Z" fill="#B2C9C6"/>
<path d="M153.876 278.62C153.876 278.62 73.9183 174.403 41.3291 199.07C8.73998 223.738 113.185 255.989 135.326 287.129L153.876 278.62Z" fill="#9BBCB6"/>
<path d="M143.539 283.474C128.629 261.682 105.274 243.464 88.3085 232.02C69.9147 219.612 54.8672 212.276 54.7173 212.203L55.1583 211.24C55.3088 211.313 70.422 218.681 88.8754 231.129C105.917 242.625 129.381 260.931 144.385 282.861L143.539 283.474Z" fill="#74A1BD"/>
<path d="M186.653 322.115C185.473 321.988 184.293 321.887 183.113 321.761C178.613 321.331 173.45 321.052 167.82 320.9C163.05 320.799 157.961 320.774 152.65 320.825C152.035 320.825 151.396 320.824 150.782 320.85C146.749 320.9 142.619 320.976 138.414 321.103C135.587 321.179 132.711 321.254 129.834 321.356C126.662 321.482 123.515 321.609 120.319 321.71C120.22 321.735 120.097 321.735 119.999 321.735C118.721 321.786 117.442 321.862 116.164 321.912C115.279 321.938 114.369 321.988 113.459 322.014C107.534 322.292 101.682 322.57 96.0029 322.823C88.4304 323.178 81.2018 323.507 74.6124 323.734C73.3342 320.116 72.3261 316.118 70.7037 312.499V312.474C70.605 312.297 70.5312 312.145 70.4327 311.942V311.917C68.638 308.096 66.0808 304.705 61.7536 302.63C57.1562 300.429 52.5583 297.468 48.6492 294.052C48.3296 293.773 48.0098 293.495 47.6903 293.191C40.0195 286.131 35.4465 277.376 39.7737 269.759C39.872 269.582 39.9948 269.404 40.0933 269.228C40.8797 267.962 41.9125 266.748 43.2158 265.584C56.8366 253.437 67.7036 260.295 80.8082 264.597C85.4309 266.14 92.0445 263.407 99.1008 260.497C103.109 258.827 107.239 257.081 111.247 256.018C111.419 255.993 111.566 255.942 111.714 255.917C113.336 255.487 114.935 255.209 116.508 255.082C117 255.031 117.467 255.006 117.934 255.006H118.303C124.45 255.006 129.834 257.941 133.227 267.026C133.326 267.279 133.424 267.532 133.522 267.76C133.916 268.797 134.309 269.809 134.703 270.746C135.12 271.707 135.514 272.618 135.907 273.479C135.907 273.479 135.907 273.504 135.932 273.529C139.3 280.817 142.546 284.663 146.16 286.941C152.503 290.939 159.977 290.155 171.139 294.684C174.705 296.127 177.851 297.62 179.745 299.973C185.621 307.362 187.538 314.954 186.653 322.115Z" fill="#CFD3A3"/>
<path d="M152.649 320.825C152.034 320.825 151.395 320.825 150.78 320.85C139.52 312.17 119.949 299.29 90.6169 287.194C90.1746 286.992 89.7321 286.815 89.2895 286.638C75.0538 280.817 58.5563 275.2 39.6245 270.341L39.7722 269.759L39.9196 269.177C39.9689 269.202 40.0426 269.202 40.0919 269.228C68.9317 276.667 92.1905 285.828 110.384 294.786C110.729 294.963 111.098 295.14 111.442 295.317H111.466C130.742 304.908 144.24 314.22 152.649 320.825Z" fill="#C4C695"/>
<path d="M115.773 283.707C129.699 275.667 133.6 267.625 133.759 267.287L132.708 266.762C132.671 266.842 128.771 274.824 115.201 282.659L115.773 283.707Z" fill="#C4C695"/>
<path d="M111.003 295.89C115.547 290.744 117.1 282.169 115.494 271.094C114.292 262.8 111.721 255.919 111.695 255.85L110.607 256.284C110.708 256.552 120.587 283.249 110.138 295.082L111.003 295.89Z" fill="#C4C695"/>
<path d="M88.344 288.496C89.9816 287.628 90.8953 287.03 90.9368 287.002L90.3018 285.994C90.1105 286.122 70.8565 298.71 47.8391 292.618L47.5488 293.782C66.0959 298.69 82.2428 291.728 88.344 288.496Z" fill="#C4C695"/>
<path d="M71.028 312.966C77.6457 308.119 80.4827 302.4 81.6975 298.457C83.0197 294.164 82.7676 291.047 82.7569 290.917L81.5935 291.023C81.6037 291.143 82.4675 303.113 70.3506 311.987L71.028 312.966Z" fill="#C4C695"/>
<path d="M34.2013 242.603C28.5668 240.983 27.391 238.658 28.0082 236.385C28.6253 234.113 30.8016 232.752 36.4357 234.372C46.6993 237.324 50.5427 242.866 50.5427 242.866C50.5427 242.866 44.6143 245.598 34.2013 242.603Z" fill="#B2C9C6"/>
<path d="M128.763 161.649C128.763 161.649 123.277 195.382 134.856 215.074C140.931 225.406 143.87 223.252 146.465 227.339C152.848 237.386 150.229 256.579 153.788 264.947C158.63 276.334 165.392 275.189 165.392 275.189L253.662 251.337C253.662 251.337 249.8 242.451 244.806 219.941C242.981 211.713 239.044 202.084 243.625 189.47C250.013 171.881 243.601 149.306 239.603 128.054C237.728 118.089 232.999 99.555 230.33 93.0017C227.518 86.0966 226.376 59.1609 216.588 59.6611C199.294 60.5449 208.142 84.3637 206.994 96.9193C205.846 109.475 128.763 161.649 128.763 161.649Z" fill="#F7B686"/>
<path d="M189.601 223.598C189.336 223.63 189.06 223.534 188.867 223.316C188.699 223.124 184.708 218.527 182.724 210.783C181.558 206.236 181.335 201.547 182.06 196.847C182.963 190.994 185.346 185.116 189.144 179.375C189.41 178.974 189.941 178.87 190.331 179.143C190.721 179.416 190.822 179.963 190.557 180.365C186.902 185.89 184.611 191.528 183.748 197.122C183.06 201.58 183.272 206.025 184.376 210.334C186.256 217.669 190.095 222.091 190.134 222.135C190.451 222.495 190.424 223.051 190.074 223.377C189.937 223.504 189.771 223.578 189.601 223.598Z" fill="#EA9F75"/>
<path d="M225.067 190.195L213.831 64.5875C213.651 62.962 213.177 61.592 212.5 60.454C209.928 56.1348 204.446 55.0202 200.497 55.4845L154.763 61.0114L153.95 61.1275L138.337 63.0085L133.915 63.5427C128.906 64.1465 125.318 68.8141 125.905 73.9693L126.469 80.2855L126.785 83.6761L127.056 86.718L127.575 92.5003L129.222 110.706L129.763 116.581V116.605L130.17 121.063L130.418 123.757V124.012L130.982 130.143L131.997 141.406L132.516 147.118V147.141L132.584 147.815V147.954L133.509 158.195L133.531 158.381L133.983 163.281L134.434 168.32L134.502 169.017V169.04L137.593 203.385C138.179 208.517 143.076 211.513 148.085 210.909L181.838 205.87H181.861L183.53 205.614L217.058 200.622C222.067 200.018 225.654 195.35 225.067 190.195Z" fill="#6F4975"/>
<path d="M200.802 57.8582L134.15 65.9098C130.427 66.3595 127.753 69.7444 128.178 73.4701L140.312 197.052C141.208 205.502 145.583 204.646 149.306 204.196L216.255 194.174C219.979 193.724 222.587 188.95 222.162 185.223L211.124 64.256C210.699 60.53 204.526 57.4083 200.802 57.8582Z" fill="#96B4E0"/>
<path d="M203.154 155.672L151.96 161.856C149.1 162.202 147.046 164.802 147.372 167.663L148.798 179.159C149.487 185.649 152.847 184.991 155.707 184.646L207.129 176.948C209.99 176.602 211.993 172.935 211.667 170.073L211.083 160.586C210.909 155.639 206.015 155.326 203.154 155.672Z" fill="white"/>
<path d="M201.559 157.753L154.132 163.483C151.483 163.803 149.557 166.005 149.83 168.401L151.035 178.028C151.607 183.464 154.722 182.876 157.371 182.556L205.024 175.555C207.674 175.235 209.564 172.138 209.29 169.741L208.845 161.791C208.734 157.643 204.209 157.433 201.559 157.753Z" fill="#395861"/>
<path d="M164.63 172.171C164.588 171.806 164.267 171.546 163.913 171.59L161.388 171.899L163.175 169.858C163.414 169.585 163.392 169.165 163.128 168.92C162.863 168.674 162.455 168.696 162.216 168.968L160.234 171.231L160.039 168.108C160.016 167.742 159.71 167.464 159.354 167.488C158.998 167.511 158.728 167.827 158.751 168.193L158.95 171.392L156.233 169.068C155.959 168.834 155.552 168.872 155.324 169.155C155.096 169.437 155.134 169.856 155.408 170.09L158.006 172.312L154.997 172.681C154.643 172.724 154.39 173.054 154.432 173.419C154.471 173.756 154.75 174.005 155.073 174.005C155.098 174.005 155.124 174.003 155.15 174L158.128 173.636L156.31 175.712C156.071 175.984 156.092 176.404 156.357 176.65C156.48 176.764 156.635 176.821 156.789 176.821C156.965 176.821 157.141 176.747 157.268 176.601L159.142 174.463L159.308 177.129C159.33 177.481 159.613 177.751 159.951 177.751C159.965 177.751 159.979 177.751 159.993 177.75C160.349 177.726 160.619 177.41 160.596 177.044L160.43 174.386L162.556 176.204C162.677 176.307 162.823 176.357 162.969 176.357C163.154 176.357 163.338 176.276 163.466 176.118C163.693 175.835 163.656 175.417 163.382 175.182L161.142 173.267L164.066 172.909C164.42 172.866 164.673 172.535 164.63 172.171Z" fill="white"/>
<path d="M178.017 170.258C177.975 169.894 177.654 169.633 177.3 169.677L174.774 169.986L176.562 167.945C176.8 167.673 176.779 167.253 176.514 167.007C176.25 166.761 175.841 166.783 175.603 167.056L173.621 169.319L173.426 166.196C173.403 165.83 173.097 165.552 172.74 165.575C172.385 165.599 172.115 165.915 172.137 166.281L172.337 169.479L169.62 167.156C169.346 166.921 168.939 166.96 168.711 167.242C168.483 167.524 168.521 167.943 168.795 168.178L171.393 170.4L168.384 170.768C168.03 170.812 167.777 171.142 167.819 171.506C167.858 171.844 168.137 172.092 168.459 172.092C168.485 172.092 168.51 172.091 168.536 172.088L171.514 171.723L169.696 173.799C169.457 174.072 169.479 174.492 169.743 174.738C169.867 174.852 170.021 174.908 170.175 174.908C170.352 174.908 170.527 174.834 170.655 174.689L172.528 172.55L172.694 175.217C172.716 175.568 173 175.839 173.338 175.839C173.352 175.839 173.366 175.838 173.38 175.837C173.736 175.814 174.006 175.498 173.983 175.132L173.817 172.473L175.943 174.292C176.064 174.395 176.21 174.445 176.355 174.445C176.54 174.445 176.724 174.363 176.852 174.205C177.08 173.923 177.042 173.504 176.768 173.27L174.529 171.354L177.452 170.997C177.806 170.953 178.059 170.623 178.017 170.258Z" fill="white"/>
<path d="M192.122 168.284C192.08 167.92 191.759 167.659 191.405 167.703L188.879 168.012L190.667 165.971C190.905 165.699 190.884 165.279 190.619 165.033C190.355 164.787 189.946 164.809 189.708 165.082L187.726 167.345L187.531 164.222C187.508 163.855 187.202 163.578 186.845 163.601C186.49 163.625 186.22 163.941 186.242 164.307L186.442 167.505L183.725 165.182C183.451 164.947 183.044 164.986 182.816 165.268C182.588 165.55 182.626 165.969 182.9 166.204L185.498 168.426L182.489 168.794C182.135 168.837 181.882 169.168 181.924 169.532C181.963 169.87 182.242 170.118 182.564 170.118C182.59 170.118 182.615 170.117 182.641 170.113L185.62 169.749L183.801 171.825C183.562 172.098 183.584 172.518 183.848 172.763C183.972 172.878 184.126 172.934 184.28 172.934C184.457 172.934 184.632 172.86 184.76 172.715L186.633 170.576L186.799 173.243C186.821 173.594 187.105 173.864 187.443 173.864C187.457 173.864 187.471 173.864 187.485 173.863C187.841 173.84 188.11 173.524 188.088 173.158L187.922 170.499L190.048 172.317C190.169 172.421 190.315 172.471 190.46 172.471C190.645 172.471 190.829 172.389 190.957 172.231C191.185 171.949 191.147 171.53 190.873 171.295L188.634 169.38L191.557 169.022C191.911 168.979 192.164 168.649 192.122 168.284Z" fill="white"/>
<path d="M206.256 166.174C206.214 165.809 205.893 165.549 205.539 165.593L203.013 165.902L204.8 163.861C205.039 163.588 205.018 163.168 204.753 162.923C204.489 162.677 204.08 162.699 203.842 162.971L201.859 165.234L201.665 162.111C201.642 161.745 201.336 161.467 200.979 161.491C200.623 161.514 200.353 161.83 200.376 162.196L200.576 165.395L197.859 163.071C197.585 162.837 197.178 162.875 196.95 163.158C196.722 163.44 196.759 163.859 197.033 164.093L199.632 166.315L196.623 166.684C196.268 166.727 196.016 167.058 196.058 167.422C196.097 167.759 196.376 168.008 196.698 168.008C196.723 168.008 196.749 168.006 196.775 168.003L199.754 167.639L197.935 169.715C197.696 169.987 197.718 170.407 197.982 170.653C198.106 170.767 198.26 170.824 198.414 170.824C198.591 170.824 198.766 170.75 198.894 170.604L200.767 168.466L200.933 171.132C200.955 171.484 201.239 171.754 201.577 171.754C201.59 171.754 201.605 171.754 201.619 171.753C201.974 171.729 202.244 171.413 202.222 171.047L202.056 168.389L204.182 170.207C204.303 170.31 204.449 170.36 204.594 170.36C204.779 170.36 204.963 170.279 205.091 170.121C205.319 169.838 205.281 169.42 205.007 169.185L202.768 167.27L205.691 166.912C206.045 166.869 206.298 166.538 206.256 166.174Z" fill="white"/>
<path d="M200.776 120.356C200.158 123.386 199.009 126.168 197.452 128.654C195.528 131.731 192.978 134.357 190.034 136.446C189.432 136.873 188.814 137.278 188.181 137.659C181.827 141.492 174.009 142.99 166.726 141.416C165 141.043 163.377 140.491 161.86 139.778C159.949 138.882 158.208 137.735 156.647 136.383C155.765 135.616 154.939 134.784 154.174 133.895L154.174 133.893C148.387 127.164 146.038 117.124 148.042 107.297C151.152 92.0538 162.483 80.958 179.789 85.3404C194.102 88.9647 203.885 105.112 200.776 120.356Z" fill="white"/>
<path d="M156.559 131.203C154.633 129.362 153.136 127.214 152.045 124.877C150.693 121.986 149.963 118.804 149.808 115.551C149.777 114.886 149.769 114.218 149.786 113.549C149.946 106.83 152.494 100.002 157.038 94.9674C158.114 93.7749 159.274 92.7428 160.501 91.8664C162.047 90.7611 163.695 89.9025 165.411 89.2772C166.382 88.9243 167.375 88.6453 168.381 88.4407L168.382 88.4414C175.995 86.889 184.425 89.5249 190.67 95.4953C200.358 104.757 203.185 118.642 191.92 130.317C182.603 139.973 166.247 140.465 156.559 131.203Z" fill="#395861"/>
<path d="M184.13 113.509L164.189 115.745L163.239 106.767C162.959 104.129 163.695 101.538 165.31 99.4692C166.924 97.4009 169.225 96.1035 171.788 95.8161L172.54 95.7318C175.103 95.4444 177.621 96.2014 179.631 97.8633C181.64 99.5252 182.901 101.893 183.18 104.531L184.13 113.509ZM166.752 112.461L180.94 110.87L180.303 104.854C179.9 101.041 176.558 98.2773 172.853 98.6927L172.101 98.7769C169.62 99.223 167.619 100.747 166.67 102.844C166.184 103.917 165.979 105.154 166.115 106.444L166.752 112.461Z" fill="white"/>
<path d="M182.458 128.145L168.884 129.667C166.357 129.951 164.084 128.071 163.809 125.47L162.138 109.683C162.051 108.863 162.627 108.125 163.423 108.036L183.265 105.811C184.062 105.722 184.778 106.314 184.865 107.134L186.536 122.921C186.812 125.523 184.986 127.862 182.458 128.145Z" fill="white"/>
<path d="M175.421 115.148C175.35 114.47 174.758 113.981 174.099 114.054C173.441 114.128 172.965 114.738 173.037 115.415C173.073 115.752 173.237 116.043 173.474 116.24L173.978 120.999C174.028 121.48 174.449 121.828 174.917 121.776C175.384 121.723 175.722 121.29 175.671 120.809L175.168 116.05C175.357 115.804 175.457 115.485 175.421 115.148Z" fill="#395861"/>
<path d="M109.143 137.663L128.4 146.086C133.197 149.465 139.75 148.204 143.035 143.267C146.32 138.329 145.094 131.587 140.297 128.204L127.863 119.441C119.325 113.606 111.719 111.01 106.436 118.964C98.9752 130.193 104.504 134.393 109.143 137.663Z" fill="#F7B686"/>
<path d="M281.039 325.708C282.706 325.494 284.341 325.248 285.944 324.965C273.988 290.45 253.514 231.212 253.136 230.113C252.346 227.883 249.954 226.56 246.254 226.165H246.232C238.289 225.329 224.278 228.812 206.995 236.963C185.56 247.088 163.878 243.558 150.837 243.024H150.814C148.4 242.908 146.279 242.931 144.519 243.14C140.474 243.624 137.483 263.875 135.563 285.734C135.443 287.099 135.091 305.864 134.79 321.192C150.352 320.715 160.729 320.75 167.819 320.9C178.354 321.185 181.32 321.591 197.052 323.127C230.26 326.342 258.097 328.803 281.039 325.708Z" fill="#68A1BF"/>
<path d="M136.232 143.118C136.125 143.118 136.018 143.107 135.913 143.085C135.554 143.018 129.806 141.929 127.137 139.967C126.037 139.159 125.932 137.464 126.84 135.194C127.504 133.535 128.656 131.7 129.921 130.286C130.958 129.126 132.48 127.792 133.834 128.018C136.913 128.534 141.514 131.415 141.432 134.58C141.37 137.005 139.438 141.081 137.674 142.511C137.177 142.915 136.693 143.118 136.232 143.118ZM133.509 129.359C132.261 129.359 129.383 132.433 128.069 135.715C127.448 137.267 127.386 138.47 127.909 138.854C130.362 140.656 136.099 141.729 136.156 141.74L136.178 141.744C136.322 141.776 136.575 141.661 136.851 141.437C138.319 140.247 140.051 136.575 140.104 134.543C140.161 132.336 136.162 129.794 133.62 129.368C133.585 129.362 133.548 129.359 133.509 129.359Z" fill="#EA9F75"/>
<path d="M110.305 110.977L128.191 122.153C132.468 126.206 139.128 125.923 143.067 121.522C147.006 117.12 146.732 110.266 142.455 106.211L131.369 95.7039C123.732 88.6698 116.567 84.9791 110.23 92.0713C101.283 102.084 106.17 107.057 110.305 110.977Z" fill="#F7B686"/>
<path d="M136.591 120.388C136.4 120.388 136.216 120.356 136.04 120.291C135.693 120.172 130.157 118.246 127.789 115.911C126.813 114.949 126.945 113.256 128.16 111.144C129.048 109.6 130.444 107.954 131.892 106.741C133.08 105.746 134.772 104.649 136.08 105.073C137.547 105.549 139.27 106.659 140.578 107.97C142.178 109.575 142.927 111.25 142.687 112.689C142.287 115.079 139.808 118.829 137.863 119.984C137.409 120.253 136.983 120.388 136.591 120.388ZM135.443 106.344C134.121 106.344 131.002 108.888 129.304 111.841C128.473 113.285 128.245 114.466 128.709 114.924C130.885 117.069 136.413 118.977 136.469 118.996L136.489 119.004C136.628 119.056 136.894 118.98 137.199 118.799C138.816 117.838 141.042 114.46 141.377 112.457C141.741 110.28 138.137 107.174 135.681 106.378C135.61 106.355 135.53 106.344 135.443 106.344Z" fill="#EA9F75"/>
<path d="M118.132 164.286L135.24 168.527C139.674 170.646 144.939 168.665 146.999 164.102C149.06 159.538 147.136 154.12 142.701 151.998L131.207 146.502C123.34 142.879 116.682 141.811 113.37 149.161C108.693 159.54 113.844 162.236 118.132 164.286Z" fill="#F7B686"/>
<path d="M141.117 165.076C141.099 165.076 141.082 165.076 141.065 165.075C140.743 165.071 135.816 164.985 133.322 163.73C132.702 163.418 131.756 162.478 132.376 159.691C133.014 156.829 135.254 152.665 137.314 152.657C137.322 152.657 137.33 152.657 137.339 152.657C140.001 152.657 144.24 154.424 144.605 157.11C144.883 159.155 143.816 162.857 142.529 164.313C142.081 164.82 141.606 165.076 141.117 165.076ZM137.338 154.024C137.332 154.024 137.326 154.024 137.319 154.024C136.361 154.028 134.313 157.118 133.672 159.997C133.382 161.3 133.473 162.283 133.906 162.501C136.161 163.635 141.041 163.707 141.09 163.707L141.112 163.708C141.161 163.709 141.321 163.647 141.546 163.393C142.566 162.238 143.511 158.935 143.289 157.3C143.047 155.516 139.47 154.024 137.338 154.024Z" fill="#EA9F75"/>
<path d="M135.096 125.779C127.775 125.779 114.927 114.793 114.349 114.296C114.068 114.054 114.031 113.623 114.266 113.333C114.501 113.043 114.921 113.005 115.202 113.247C115.239 113.279 118.927 116.443 123.378 119.377C129.156 123.185 133.568 124.889 136.139 124.304C136.497 124.222 136.852 124.455 136.931 124.823C137.011 125.192 136.784 125.557 136.426 125.639C136.009 125.734 135.564 125.779 135.096 125.779Z" fill="#EA9F75"/>
<path d="M134.004 148.776C129.551 148.776 122.421 144.271 122.088 144.059C121.776 143.86 121.68 143.439 121.873 143.118C122.066 142.797 122.475 142.697 122.788 142.896C125.166 144.41 131.994 148.149 134.99 147.288C135.344 147.186 135.71 147.399 135.808 147.763C135.907 148.126 135.701 148.504 135.347 148.606C134.939 148.722 134.487 148.776 134.004 148.776Z" fill="#EA9F75"/>
<path d="M222.543 80.8257C221.655 80.8259 220.551 80.6255 219.375 79.9372C218.566 79.4636 217.471 78.0913 217.3 71.6673C217.21 68.282 217.431 65.0335 217.434 65.0011C217.46 64.6243 217.777 64.3405 218.144 64.3676C218.51 64.3942 218.785 64.7215 218.759 65.0981C218.757 65.1302 218.54 68.3203 218.629 71.6394C218.787 77.5665 219.743 78.5792 220.032 78.7483C222.181 80.0061 223.979 79.2225 224.055 79.1883C224.389 79.0376 224.782 79.1927 224.93 79.5364C225.079 79.88 224.931 80.2817 224.598 80.4366C224.541 80.4634 223.738 80.8257 222.543 80.8257Z" fill="#EA9F75"/>
<path d="M154.914 228.879C154.864 228.885 154.813 228.886 154.76 228.883C147.2 228.404 142.615 225.616 140.1 223.361C137.329 220.877 136.385 218.49 136.346 218.389C136.171 217.938 136.385 217.427 136.823 217.247C137.26 217.068 137.756 217.286 137.932 217.736C137.94 217.757 138.804 219.895 141.302 222.105C143.613 224.151 147.842 226.682 154.865 227.128C155.336 227.157 155.694 227.574 155.666 228.059C155.64 228.491 155.316 228.83 154.914 228.879Z" fill="#EA9F75"/>
<path d="M138.029 170.243C138.009 170.243 137.988 170.243 137.967 170.243C133.482 170.223 117.195 164.478 116.504 164.234C116.157 164.111 115.973 163.722 116.092 163.365C116.211 163.008 116.589 162.818 116.936 162.94C117.103 163 133.705 168.856 137.973 168.875C137.992 168.875 138.01 168.876 138.029 168.876C142.092 168.876 144.04 166.892 144.059 166.872C144.317 166.603 144.738 166.6 144.999 166.866C145.26 167.131 145.263 167.563 145.005 167.833C144.911 167.931 142.641 170.243 138.029 170.243Z" fill="#EA9F75"/>
<path d="M153.687 267.791C153.443 265.655 155.108 263.146 157.139 262.642C159.79 261.983 162.044 263.602 162.288 265.738C162.573 268.239 160.704 270.865 158.194 271.168C156.118 271.419 153.931 269.927 153.687 267.791Z" fill="#41718C"/>
</svg>
